<svg width="345" height="294" viewBox="0 0 345 294" fill="none" xmlns="http://www.w3.org/2000/svg">
<path d="M219.749 168.168C218.563 165.656 217.323 162.929 214.951 161.486C213.388 160.524 211.501 160.257 209.668 159.989C208.321 159.776 206.919 159.615 205.571 159.401C202.222 153.346 199.452 146.993 197.297 140.425C196.92 139.303 196.434 137.966 195.248 137.699C194.743 137.609 194.221 137.685 193.764 137.917C193.306 138.149 192.938 138.523 192.715 138.982C192.289 139.901 192.103 140.912 192.176 141.922C192.241 143.976 192.604 146.01 193.254 147.962C192.081 147.48 190.848 147.156 189.588 147C184.09 146.091 178.591 145.129 173.093 144.22C171.961 144.007 170.775 143.846 169.805 144.488C168.026 145.61 168.673 148.55 170.398 149.726C172.123 150.902 174.387 150.902 176.489 151.116C181.5 151.711 186.186 153.884 189.858 157.317L164.953 153.949C163.12 153.682 160.856 153.628 159.886 155.179C159.023 156.515 159.67 158.332 160.856 159.348C162.042 160.364 163.659 160.738 165.223 161.059L183.335 165.068H183.605C183.187 165.34 182.79 165.644 182.419 165.976L174.252 172.124C171.988 173.834 168.861 175.171 167.406 177.736C167.049 178.35 166.848 179.04 166.82 179.748C166.792 180.456 166.937 181.159 167.244 181.799C167.675 182.868 168.214 182.868 169.239 182.44C172.15 181.264 174.629 179.393 177.217 177.629C179.805 175.829 182.568 174.289 185.464 173.032C187.836 172.017 190.532 172.925 192.796 173.834C195.653 174.957 198.564 175.865 201.367 177.148C201.583 177.241 201.783 177.367 201.96 177.523C202.114 177.878 202.133 178.277 202.014 178.645C201.421 180.89 200.666 183.349 198.725 184.685C196.946 185.861 194.629 185.861 192.526 185.594C188.753 185.113 185.087 184.097 181.314 183.563C177.54 183.028 173.551 183.082 170.155 184.739C169.514 184.998 168.969 185.446 168.592 186.022C168.053 187.037 168.592 188.32 169.508 188.962C170.465 189.578 171.554 189.963 172.689 190.084C176.139 190.779 179.589 191.421 183.039 192.116C186.327 192.757 189.615 193.452 192.526 195.056C194.682 196.232 196.515 197.889 198.348 199.439C200.936 201.684 203.631 203.929 206.811 205.319C212.471 207.831 218.617 208.58 224.007 211.627L225.84 213.177L240.071 201.524C233.872 191.795 221.258 171.375 219.749 168.168Z" fill="#FFBF8A"/>
<path d="M325.055 256.582C324.893 255.032 324.731 253.535 324.516 251.985C322.791 239.744 319.233 227.823 313.303 216.919C311.839 214.22 310.238 211.598 308.505 209.061C302.63 200.294 294.759 192.276 292.549 182.013L218.159 190.031C211.636 203.876 199.345 214.032 188.51 224.883C180.424 233.008 172.823 242.416 169.158 253.481C164.845 266.471 166.57 280.529 165.007 293.893H325.055C325.405 281.438 326.214 268.983 325.055 256.582Z" fill="#FFEFB4"/>
<path d="M173.039 87.024L164.684 76.6538C163.828 75.5651 163.338 74.2378 163.282 72.8585L163.066 43.9931C163.069 43.7143 163.17 43.4454 163.353 43.2338C163.536 43.0222 163.789 42.8815 164.066 42.8368C164.344 42.792 164.628 42.8459 164.869 42.989C165.111 43.1322 165.293 43.3553 165.384 43.6189L179.4 85.4738" fill="#FFEFB4"/>
<path d="M91.1286 46.2382C91.0471 46.4158 91.029 46.6156 91.0772 46.8048C91.1253 46.994 91.2369 47.1614 91.3935 47.2795C91.5502 47.3975 91.7427 47.4593 91.9394 47.4547C92.1361 47.45 92.3254 47.3792 92.4762 47.2538L118.055 26.1393C118.206 26.0208 118.308 25.8519 118.342 25.6642C118.377 25.4764 118.341 25.2826 118.242 25.1189C118.143 24.9553 117.988 24.8329 117.804 24.7748C117.621 24.7166 117.423 24.7266 117.246 24.8029L98.9989 32.0727C98.1155 32.4326 97.3765 33.0715 96.8965 33.8902L91.1286 46.2382Z" fill="#FFEFB4"/>
<path d="M150.048 78.8989C150.246 78.7733 150.395 78.5841 150.47 78.3629C150.545 78.1417 150.541 77.9018 150.459 77.6831C150.377 77.4644 150.222 77.2802 150.02 77.161C149.817 77.0418 149.58 76.9949 149.347 77.028L109.511 82.0527C109.284 82.0797 109.074 82.1867 108.92 82.3541C108.765 82.5216 108.677 82.7384 108.67 82.9651C108.664 83.1918 108.74 83.4133 108.884 83.5893C109.028 83.7652 109.232 83.8839 109.457 83.9236L132.69 88.2535C133.81 88.4716 134.971 88.3018 135.979 87.7724L150.048 78.8989Z" fill="#FFD900"/>
<path d="M56.6285 27.4756C56.7565 27.5287 56.8988 27.5373 57.0323 27.5C57.1658 27.4627 57.2827 27.3818 57.3639 27.2702C57.4451 27.1587 57.4859 27.0233 57.4796 26.8859C57.4734 26.7485 57.4204 26.6172 57.3293 26.5134L41.5348 8.71308C41.4453 8.61136 41.3223 8.54432 41.1878 8.52384C41.0532 8.50335 40.9156 8.53073 40.7995 8.60113C40.6833 8.67153 40.596 8.78042 40.553 8.90852C40.51 9.03662 40.514 9.17567 40.5645 9.30108L46.1707 22.1302C46.4388 22.7509 46.9148 23.2608 47.5184 23.5734L56.6285 27.4756Z" fill="#FFD900"/>
<path d="M179.966 85.3669L190.801 82.6407C192.171 82.3091 193.613 82.4408 194.898 83.0149L221.366 94.9887C221.623 95.1022 221.831 95.3025 221.952 95.5538C222.074 95.8051 222.102 96.0912 222.031 96.3609C221.959 96.6306 221.794 96.8664 221.563 97.0263C221.333 97.1862 221.053 97.2597 220.773 97.2338L176.57 92.2625" fill="#FFEFB4"/>
<path d="M176.139 91.3538L169.454 103.809C168.8 105.039 167.732 106.004 166.436 106.535L139.644 117.76C139.383 117.875 139.088 117.892 138.815 117.808C138.542 117.725 138.309 117.546 138.158 117.305C138.007 117.065 137.949 116.778 137.994 116.498C138.04 116.219 138.185 115.964 138.404 115.783L171.988 86.8636" fill="#FFEFB4"/>
<path d="M196.569 115.408C196.569 115.408 184.386 111.399 180.397 123.64Z" fill="#275217"/>
<path d="M196.569 115.301C196.569 115.301 192.796 127.489 180.397 123.533Z" fill="#275217"/>
<path d="M165.142 124.121C165.142 124.121 165.411 136.844 178.349 136.469Z" fill="#275217"/>
<path d="M165.088 124.228C165.088 124.228 177.918 123.747 178.295 136.576Z" fill="#275217"/>
<path d="M131.558 46.9331C131.558 46.9331 128.647 49.2851 131.073 52.1716Z" fill="#275217"/>
<path d="M131.531 46.9331C131.531 46.9331 133.957 49.7662 131.046 52.1716Z" fill="#275217"/>
<path d="M133.607 60.6175C133.607 60.6175 136.787 62.5953 138.728 59.388Z" fill="#275217"/>
<path d="M133.607 60.6709C133.607 60.6709 135.493 57.4637 138.728 59.4415Z" fill="#275217"/>
<path d="M143.741 62.0607C143.665 62.0687 143.589 62.0498 143.525 62.0072C140.183 61.0985 137.865 59.976 136.032 58.4258C135.117 57.6248 134.253 56.7679 133.445 55.86C132.531 54.773 131.5 53.7873 130.372 52.92C129.239 52.2403 128.026 51.7017 126.761 51.3163C124.712 50.568 122.61 49.8196 121.047 48.216C120.97 48.1436 120.909 48.0565 120.867 47.96C120.825 47.8635 120.804 47.7597 120.804 47.6547C120.804 47.5497 120.825 47.4459 120.867 47.3494C120.909 47.2529 120.97 47.1658 121.047 47.0934C121.12 47.0146 121.209 46.9526 121.309 46.9118C121.409 46.8711 121.517 46.8527 121.625 46.8578C121.733 46.8629 121.839 46.8914 121.934 46.9414C122.03 46.9913 122.113 47.0615 122.179 47.1469C123.472 48.4298 125.359 49.1782 127.246 49.8196C128.649 50.2515 129.99 50.8625 131.235 51.6371C132.481 52.5801 133.62 53.6556 134.631 54.8443C135.384 55.7157 136.195 56.5371 137.057 57.3032C138.728 58.6931 140.884 59.7087 143.957 60.564C144.058 60.5883 144.153 60.6332 144.236 60.6958C144.319 60.7585 144.388 60.8375 144.439 60.9279C144.49 61.0183 144.521 61.1182 144.531 61.2211C144.54 61.3241 144.528 61.428 144.496 61.5262C144.44 61.6813 144.338 61.8158 144.203 61.9114C144.068 62.007 143.907 62.0591 143.741 62.0607Z" fill="#275217"/>
<path d="M87.3281 72.6447C87.3281 72.6447 90.0773 77.1884 94.6594 74.3553Z" fill="#275217"/>
<path d="M87.3281 72.6447C87.3281 72.6447 91.8563 69.8116 94.6594 74.3553Z" fill="#275217"/>
<path d="M107.273 72.3774C107.273 72.3774 110.67 68.3149 106.465 64.9473Z" fill="#275217"/>
<path d="M107.273 72.3774C107.273 72.3774 103.069 69.1167 106.465 64.9473Z" fill="#275217"/>
<path d="M86.4387 87.4516C86.3126 87.4547 86.1877 87.4271 86.0749 87.3712C85.9622 87.3152 85.8649 87.2327 85.7918 87.1309C85.6698 86.9585 85.6186 86.7464 85.6487 86.5379C85.6787 86.3294 85.7877 86.14 85.9535 86.0083C88.1098 84.4582 89.5113 81.8389 90.859 79.2731C91.8832 77.3487 92.8535 75.5313 94.1473 74.1414C95.6985 72.5829 97.4365 71.2185 99.3223 70.0789C100.721 69.1946 102.054 68.2121 103.311 67.1389C105.683 65.0007 107.516 62.2211 109.349 57.9982C109.391 57.8999 109.453 57.8109 109.53 57.7362C109.607 57.6615 109.698 57.6026 109.799 57.5629C109.899 57.5232 110.006 57.5035 110.114 57.5048C110.221 57.5061 110.328 57.5284 110.427 57.5705C110.526 57.6126 110.616 57.6737 110.691 57.7502C110.766 57.8268 110.826 57.9172 110.866 58.0165C110.906 58.1158 110.926 58.2219 110.925 58.3288C110.923 58.4357 110.901 58.5413 110.858 58.6396C108.918 63.0763 106.923 66.0698 104.389 68.3684C103.092 69.4942 101.703 70.5132 100.239 71.4153C98.4883 72.5033 96.8616 73.7758 95.3871 75.2105C94.2551 76.44 93.3387 78.1505 92.3684 79.968C90.9129 82.6407 89.4574 85.4204 86.9777 87.2378C86.9112 87.313 86.8276 87.3715 86.734 87.4087C86.6403 87.4458 86.5391 87.4605 86.4387 87.4516Z" fill="#275217"/>
<path d="M62.7199 65.0008C62.7199 65.0008 63.7441 60.7244 59.3777 59.7622Z" fill="#275217"/>
<path d="M62.7199 64.9473C62.7199 64.9473 58.3535 64.0386 59.3777 59.7087Z" fill="#275217"/>
<path d="M50.7528 53.6149C50.7528 53.6149 46.3324 54.096 46.8715 58.4793Z" fill="#275217"/>
<path d="M50.6989 53.6149C50.6989 53.6149 51.2918 57.9982 46.8176 58.4793Z" fill="#275217"/>
<path d="M40.7801 61.152C40.6192 61.1608 40.4597 61.119 40.3242 61.0326C40.1887 60.9462 40.0841 60.8197 40.0254 60.6709C39.9421 60.4722 39.9406 60.249 40.0212 60.0492C40.1018 59.8493 40.2581 59.6888 40.4567 59.6018C44.2301 58.0516 47.1949 57.4102 50.052 57.5171C51.485 57.6006 52.909 57.7972 54.3106 58.1051C55.9889 58.4913 57.709 58.6709 59.4317 58.6396C60.8332 58.5862 62.3965 58.0516 64.0137 57.5706C66.4934 56.7687 68.9731 55.9669 71.5606 56.3411C71.775 56.3695 71.9693 56.4811 72.1007 56.6515C72.2322 56.822 72.2899 57.0372 72.2613 57.2498C72.2327 57.4625 72.1201 57.6552 71.9483 57.7855C71.7764 57.9158 71.5594 57.9731 71.3449 57.9447C69.1887 57.624 66.8168 58.3724 64.5527 59.1207C62.9327 59.7021 61.2505 60.0967 59.5395 60.2967C57.6884 60.3451 55.8391 60.1473 54.041 59.7087C52.709 59.4292 51.3574 59.2506 49.9981 59.1742C47.3567 59.0673 44.6074 59.6553 41.1035 61.0986C40.9957 61.0986 40.8879 61.152 40.7801 61.152Z" fill="#275217"/>
<path d="M79.4309 22.1302C79.4309 22.1302 76.7895 23.0389 77.7598 25.7116Z" fill="#275217"/>
<path d="M79.4309 22.1302C79.4309 22.1302 80.4012 24.7495 77.7598 25.7116Z" fill="#275217"/>
<path d="M77.4363 32.34C77.4363 32.34 79.2152 34.4782 81.3714 32.7142Z" fill="#275217"/>
<path d="M77.4363 32.3935C77.4363 32.3935 79.5925 30.6295 81.3714 32.7676Z" fill="#275217"/>
<path d="M84.4442 36.0818C84.2699 36.0779 84.1008 36.022 83.959 35.9214C81.8028 34.4247 80.4012 33.0883 79.4848 31.4847C79.0136 30.6846 78.6167 29.8437 78.2989 28.9723C77.9301 27.9832 77.4605 27.0339 76.8973 26.1393C76.2901 25.3886 75.5828 24.7233 74.795 24.1614C73.5551 23.1458 72.2075 22.0233 71.5067 20.5265C71.4642 20.4282 71.4417 20.3226 71.4404 20.2157C71.4391 20.1088 71.459 20.0027 71.499 19.9034C71.5391 19.8041 71.5984 19.7137 71.6738 19.6371C71.7491 19.5606 71.8388 19.4996 71.9379 19.4574C72.037 19.4153 72.1436 19.393 72.2514 19.3917C72.3592 19.3904 72.4662 19.4101 72.5663 19.4498C72.6664 19.4895 72.7577 19.5484 72.8348 19.6231C72.912 19.6978 72.9736 19.7868 73.0161 19.8851C73.5551 21.0611 74.7411 22.0233 75.8731 22.9854C76.7661 23.6404 77.5642 24.4138 78.245 25.284C78.9109 26.2664 79.4539 27.3254 79.8622 28.4378C80.156 29.2326 80.5166 30.0015 80.9403 30.7363C81.7489 32.1262 82.9887 33.3556 84.9293 34.692C85.106 34.8135 85.2294 34.9972 85.2745 35.2057C85.3195 35.4142 85.2829 35.6319 85.1719 35.8145C84.9741 35.9948 84.7127 36.0908 84.4442 36.0818Z" fill="#275217"/>
<path d="M273.062 165.228C272.424 163.854 271.989 162.395 271.768 160.898C271.607 159.134 271.984 157.156 273.439 156.141C274.895 155.125 276.943 155.392 278.722 155.499C282.989 155.642 287.152 154.17 290.366 151.383C292.63 149.405 294.409 146.626 294.301 143.632C294.193 140.639 292.253 138.073 289.827 136.416C288.602 135.559 287.233 134.925 285.784 134.545C283.412 133.957 280.932 134.171 278.507 134.011C276.081 133.85 273.493 133.048 272.092 131.124C270.475 128.932 270.852 125.885 271.822 123.373C272.793 120.861 274.41 118.616 275.164 115.996C276.889 110.33 274.571 104.343 273.493 98.5167C272.143 90.8372 272.964 82.9367 275.865 75.6917C270.551 76.8142 265.514 78.97 261.045 82.0345C256.576 85.099 252.764 89.0113 249.829 93.5455C249.559 93.9731 249.236 94.4007 248.966 94.8818C245.947 99.1582 228.751 105.038 228.751 105.038C226.325 105.466 224.223 106.588 224.223 109.742C224.223 111.185 225.301 112.361 226.002 113.644C226.703 114.927 227.08 116.745 225.894 117.6C224.169 118.829 222.067 117.333 220.234 118.135C218.401 118.936 217.862 120.593 218.024 122.357C218.142 123.309 218.378 124.242 218.725 125.137C218.994 125.832 219.641 126.527 219.641 127.275C219.695 128.825 217.97 128.451 217 128.612C216.366 128.681 215.754 128.884 215.206 129.207C214.657 129.53 214.185 129.964 213.819 130.483C213.347 131.272 213.155 132.195 213.272 133.105C213.389 134.015 213.809 134.861 214.466 135.507C215.382 136.416 217.269 137.057 216.622 138.715C216.137 139.944 214.736 140.532 213.873 141.494C213.006 142.465 212.411 143.645 212.148 144.915C210.585 151.544 217.054 156.034 222.552 157.584C226.002 158.546 229.614 158.92 233.171 159.722C235.382 160.203 237.753 161.005 239.101 162.876C241.042 165.549 241.096 168.596 239.425 172.444" fill="#FFBF8A"/>
<path d="M244.222 139.784C249.641 139.784 254.033 135.428 254.033 130.055C254.033 124.682 249.641 120.326 244.222 120.326C238.804 120.326 234.411 124.682 234.411 130.055C234.411 135.428 238.804 139.784 244.222 139.784Z" fill="#E2854D"/>
<path d="M68.3262 59.1741C68.7574 58.6184 69.3131 58.1698 69.9493 57.8636C70.5855 57.5575 71.2847 57.4022 71.9918 57.4101C70.7329 57.0025 69.6868 56.119 69.0809 54.9512C70.3746 53.7752 72.9621 54.8978 72.9621 54.8978C72.4811 54.4221 72.1222 53.8388 71.9159 53.1969C71.7095 52.5551 71.6616 51.8735 71.7762 51.2094C73.6629 51.3698 75.2262 53.4545 75.2262 53.4545C74.3637 51.2629 75.9809 49.392 75.9809 49.392C75.9809 49.392 78.0293 50.8352 77.7598 53.1338C77.7598 53.1338 78.7301 50.7283 80.509 50.0869C80.7769 50.7009 80.8969 51.3684 80.8594 52.0365C80.822 52.7045 80.6282 53.3547 80.2934 53.9356C80.2934 53.9356 82.5035 52.2251 84.0668 53.0269C83.7843 54.3001 83.0103 55.413 81.9105 56.1272C82.5887 55.9389 83.3015 55.9084 83.9935 56.0382C84.6854 56.168 85.3378 56.4546 85.8996 56.8756C85.4684 57.4313 84.9127 57.88 84.2765 58.1861C83.6403 58.4923 82.9411 58.6475 82.234 58.6396C83.4929 59.0472 84.5389 59.9308 85.1449 61.0985C83.8512 62.2745 81.2637 61.152 81.2637 61.152C81.7447 61.6277 82.1035 62.211 82.3099 62.8528C82.5163 63.4947 82.5642 64.1763 82.4496 64.8403C80.5629 64.68 78.9996 62.5952 78.9996 62.5952C79.8621 64.7869 78.2449 66.6578 78.2449 66.6578C78.2449 66.6578 76.1965 65.2145 76.466 62.916C76.466 62.916 75.4957 65.3214 73.7168 65.9629C73.4489 65.3488 73.3289 64.6813 73.3663 64.0133C73.4038 63.3452 73.5976 62.695 73.9324 62.1141C73.9324 62.1141 71.7223 63.8247 70.159 63.0229C70.4415 61.7497 71.2155 60.6368 72.3152 59.9225C71.6371 60.1109 70.9243 60.1414 70.2323 60.0116C69.5404 59.8817 68.888 59.5952 68.3262 59.1741Z" fill="#FFD900"/>
<path d="M77.005 61.5797C78.9997 61.5797 80.6168 59.9762 80.6168 57.9982C80.6168 56.0202 78.9997 54.4167 77.005 54.4167C75.0103 54.4167 73.3933 56.0202 73.3933 57.9982C73.3933 59.9762 75.0103 61.5797 77.005 61.5797Z" fill="#FAEDE3"/>
<path d="M113.823 46.7193C114.098 46.3696 114.449 46.0868 114.851 45.8922C115.253 45.6977 115.694 45.5966 116.141 45.5967C115.745 45.4766 115.377 45.2771 115.062 45.0104C114.747 44.7437 114.49 44.4157 114.308 44.0465C115.117 43.2982 116.788 43.9931 116.788 43.9931C116.478 43.6919 116.247 43.3201 116.116 42.9101C115.984 42.5001 115.956 42.0644 116.033 41.6411C117.219 41.748 118.243 43.0844 118.243 43.0844C118.102 42.6417 118.072 42.1715 118.157 41.7148C118.241 41.2581 118.438 40.829 118.728 40.4651C119.103 40.7423 119.402 41.107 119.599 41.5267C119.797 41.9464 119.887 42.4081 119.861 42.8705C119.861 42.8705 120.507 41.3204 121.639 40.9462C121.813 41.3388 121.89 41.7672 121.861 42.1952C121.833 42.6232 121.702 43.0382 121.478 43.4051C121.478 43.4051 122.879 42.336 123.85 42.8171C123.77 43.2262 123.604 43.614 123.362 43.9549C123.121 44.2957 122.809 44.582 122.448 44.7949C122.879 44.6795 123.332 44.6628 123.771 44.7461C124.21 44.8295 124.624 45.0107 124.982 45.276C124.707 45.6257 124.355 45.9085 123.954 46.103C123.552 46.2976 123.111 46.3986 122.664 46.3985C123.06 46.5186 123.427 46.7182 123.742 46.9849C124.058 47.2515 124.314 47.5796 124.496 47.9487C123.688 48.6971 122.017 48.0022 122.017 48.0022C122.327 48.3033 122.557 48.6752 122.689 49.0852C122.82 49.4951 122.849 49.9308 122.771 50.3542C121.586 50.2473 120.561 48.9109 120.561 48.9109C120.703 49.3535 120.732 49.8238 120.648 50.2805C120.563 50.7371 120.367 51.1662 120.076 51.5302C119.702 51.253 119.403 50.8883 119.205 50.4686C119.008 50.0488 118.918 49.5872 118.944 49.1247C118.944 49.1247 118.297 50.6749 117.165 51.0491C116.991 50.6564 116.915 50.228 116.943 49.8C116.971 49.3721 117.103 48.9571 117.327 48.5902C117.327 48.5902 115.925 49.6593 114.955 49.1782C115.035 48.7691 115.201 48.3813 115.442 48.0404C115.684 47.6995 115.995 47.4132 116.357 47.2004C115.929 47.3469 115.47 47.3796 115.025 47.2952C114.58 47.2108 114.166 47.0122 113.823 46.7193Z" fill="white"/>
<path d="M63.4207 18.7091C63.6954 18.3594 64.0471 18.0765 64.4487 17.882C64.8504 17.6875 65.2916 17.5864 65.7386 17.5865C65.3371 17.461 64.9666 17.2535 64.6509 16.9773C64.3352 16.701 64.0814 16.3623 63.9058 15.9829C64.7144 15.2345 66.3855 15.9294 66.3855 15.9294C66.0756 15.6283 65.8449 15.2564 65.7133 14.8465C65.5818 14.4365 65.5534 14.0008 65.6308 13.5774C66.8167 13.6843 67.841 15.0207 67.841 15.0207C67.6996 14.5781 67.67 14.1078 67.7545 13.6511C67.8391 13.1945 68.0354 12.7654 68.3261 12.4014C68.7003 12.6786 68.9996 13.0433 69.1971 13.463C69.3946 13.8828 69.4843 14.3444 69.4582 14.8069C69.4582 14.8069 70.105 13.2567 71.2371 12.8825C71.411 13.2752 71.4872 13.7036 71.459 14.1316C71.4309 14.5595 71.2993 14.9745 71.0753 15.3414C71.0753 15.3414 72.4769 14.2723 73.4472 14.7534C73.3677 15.1625 73.2016 15.5503 72.9601 15.8912C72.7185 16.2321 72.4068 16.5184 72.0456 16.7312C72.4771 16.6158 72.9294 16.5991 73.3683 16.6825C73.8072 16.7658 74.2213 16.947 74.5792 17.2123C74.3045 17.562 73.9528 17.8449 73.5512 18.0394C73.1495 18.2339 72.7083 18.335 72.2613 18.3349C72.6628 18.4604 73.0333 18.6679 73.349 18.9441C73.6647 19.2204 73.9185 19.5591 74.0941 19.9385C73.2855 20.6869 71.6144 19.992 71.6144 19.992C71.9243 20.2931 72.155 20.665 72.2866 21.0749C72.4181 21.4849 72.4465 21.9206 72.3691 22.344C71.1832 22.2371 70.1589 20.9007 70.1589 20.9007C70.3003 21.3433 70.3299 21.8136 70.2454 22.2703C70.1608 22.7269 69.9645 23.156 69.6738 23.52C69.2996 23.2428 69.0003 22.8781 68.8028 22.4584C68.6053 22.0386 68.5156 21.577 68.5417 21.1145C68.5417 21.1145 67.8949 22.6647 66.7628 23.0389C66.5889 22.6462 66.5127 22.2178 66.5409 21.7898C66.569 21.3619 66.7006 20.9469 66.9246 20.58C66.9246 20.58 65.523 21.6491 64.5527 21.168C64.6322 20.7589 64.7983 20.3711 65.0398 20.0302C65.2814 19.6893 65.5931 19.403 65.9542 19.1902C65.5244 19.3211 65.0688 19.3457 64.6271 19.2619C64.1855 19.178 63.7713 18.9882 63.4207 18.7091Z" fill="#FFEFB4"/>
<path d="M31.9934 38.4338C31.9934 38.4338 34.2575 36.7767 32.4786 34.5316Z" fill="#275217"/>
<path d="M32.0472 38.4338C32.0472 38.4338 30.3222 36.2422 32.5324 34.5316Z" fill="#275217"/>
<path d="M30.8074 28.1171C30.8074 28.1171 28.4894 26.5669 26.9261 28.9189Z" fill="#275217"/>
<path d="M30.8074 28.1171C30.8074 28.1171 29.298 30.4691 26.9531 28.9189Z" fill="#275217"/>
<path d="M39.4863 38.9149C39.2612 38.9055 39.0485 38.8097 38.8934 38.6476C38.0309 37.6854 36.5754 37.0974 35.2277 36.5629C34.173 36.2056 33.1748 35.7017 32.2629 35.0662C31.3308 34.3379 30.4974 33.4935 29.7832 32.5538C29.2643 31.8815 28.6871 31.2555 28.0582 30.6829C26.8723 29.6138 25.309 28.812 23.0449 28.1171C22.9375 28.0896 22.8368 28.0407 22.749 27.9735C22.6612 27.9063 22.5881 27.8221 22.534 27.726C22.48 27.6299 22.4462 27.524 22.4347 27.4146C22.4232 27.3052 22.4342 27.1946 22.4671 27.0895C22.5 26.9844 22.5541 26.8871 22.626 26.8034C22.698 26.7196 22.7863 26.6513 22.8857 26.6024C22.9851 26.5535 23.0934 26.5252 23.2042 26.5191C23.315 26.513 23.4258 26.5292 23.5301 26.5669C26.0098 27.3687 27.7887 28.224 29.1363 29.4534C29.8072 30.0909 30.4374 30.7694 31.0231 31.4847C31.6618 32.3221 32.4044 33.0764 33.2332 33.7298C34.0502 34.2423 34.917 34.6721 35.8207 35.0127C37.2762 35.6007 38.9473 36.2422 40.0793 37.5251C40.2154 37.6841 40.2856 37.8885 40.2756 38.0969C40.2656 38.3053 40.1761 38.5021 40.0254 38.6476C39.9635 38.7315 39.8823 38.7996 39.7886 38.8461C39.6948 38.8926 39.5912 38.9162 39.4863 38.9149Z" fill="#275217"/>
<path d="M48.327 36.8837C48.1755 37.3046 47.9255 37.684 47.5975 37.9906C47.2696 38.2973 46.873 38.5224 46.4403 38.6477C47.2887 38.6807 48.095 39.0234 48.7043 39.6098C48.1653 40.572 46.3864 40.3582 46.3864 40.3582C46.7716 40.5611 47.1038 40.8504 47.3565 41.2031C47.6092 41.5557 47.7753 41.9619 47.8418 42.3895C46.6559 42.6568 45.3082 41.6946 45.3082 41.6946C45.572 42.0726 45.7392 42.5084 45.7956 42.9647C45.8519 43.4209 45.7957 43.8839 45.6317 44.3138C45.1967 44.1658 44.8061 43.9122 44.4954 43.576C44.1846 43.2399 43.9637 42.832 43.8528 42.3895C43.8528 42.3895 43.7449 44.0466 42.7746 44.7415C42.4827 44.4198 42.2719 44.0341 42.1594 43.6159C42.047 43.1978 42.0361 42.7591 42.1278 42.336C42.1278 42.336 41.1035 43.7793 40.0254 43.6189C39.9837 43.2089 40.0242 42.7948 40.1444 42.4003C40.2647 42.0058 40.4624 41.6388 40.7262 41.3204C40.349 41.5694 39.9164 41.7238 39.4657 41.7704C39.015 41.817 38.5596 41.7542 38.1387 41.5877C38.2902 41.1667 38.5402 40.7873 38.8682 40.4807C39.1961 40.1741 39.5927 39.9489 40.0254 39.8237C39.1769 39.7906 38.3706 39.448 37.7614 38.8615C38.3004 37.8993 40.0793 38.1131 40.0793 38.1131C39.6941 37.9102 39.3619 37.6209 39.1092 37.2683C38.8565 36.9156 38.6903 36.5094 38.6239 36.0818C39.8098 35.8146 41.1574 36.7768 41.1574 36.7768C40.8937 36.3988 40.7265 35.9629 40.6701 35.5067C40.6138 35.0504 40.67 34.5874 40.834 34.1575C41.2689 34.3055 41.6596 34.5592 41.9703 34.8953C42.281 35.2314 42.5019 35.6393 42.6129 36.0818C42.6129 36.0818 42.7207 34.4248 43.691 33.6764C43.983 33.9981 44.1938 34.3838 44.3063 34.802C44.4187 35.2201 44.4296 35.6587 44.3379 36.0818C44.3379 36.0818 45.3621 34.6386 46.4403 34.7989C46.4819 35.209 46.4415 35.6231 46.3212 36.0176C46.201 36.412 46.0033 36.779 45.7395 37.0975C45.8203 37.2044 46.9793 36.3491 48.327 36.8837Z" fill="white"/>
<path d="M119.322 48.3229C120.602 48.3229 121.639 47.2938 121.639 46.0244C121.639 44.7549 120.602 43.7258 119.322 43.7258C118.041 43.7258 117.004 44.7549 117.004 46.0244C117.004 47.2938 118.041 48.3229 119.322 48.3229Z" fill="#FFD900"/>
<path d="M68.9192 20.2593C70.1993 20.2593 71.2371 19.2302 71.2371 17.9607C71.2371 16.6913 70.1993 15.6622 68.9192 15.6622C67.639 15.6622 66.6012 16.6913 66.6012 17.9607C66.6012 19.2302 67.639 20.2593 68.9192 20.2593Z" fill="#FFD900"/>
<path d="M43.3137 41.5876C44.5939 41.5876 45.6317 40.5585 45.6317 39.2891C45.6317 38.0196 44.5939 36.9905 43.3137 36.9905C42.0335 36.9905 40.9957 38.0196 40.9957 39.2891C40.9957 40.5585 42.0335 41.5876 43.3137 41.5876Z" fill="#FFD900"/>
<path d="M68.5417 95.1491C70.4824 92.4229 73.8246 92.6367 73.8246 92.6367C70.5363 91.4073 69.6199 89.0553 69.6199 89.0553C71.5066 87.3982 75.2261 88.9484 75.2261 88.9484C74.5284 88.2592 74.0075 87.414 73.7074 86.4839C73.4072 85.5537 73.3365 84.5658 73.5011 83.6029C76.2503 83.8702 78.5144 86.8636 78.5144 86.8636C77.2746 83.7098 79.6464 80.9302 79.6464 80.9302C79.6464 80.9302 82.6113 83.0149 82.2339 86.3825C82.2339 86.3825 83.6355 82.908 86.223 81.9458C86.6163 82.8411 86.7919 83.8155 86.7357 84.7904C86.6795 85.7653 86.3931 86.7135 85.8996 87.5585C85.8996 87.5585 89.1339 85.0996 91.3441 86.2756C91.3441 86.2756 91.0207 88.788 88.1636 90.8193C88.1636 90.8193 91.3441 89.8036 93.9316 91.9418C91.991 94.668 88.6488 94.4542 88.6488 94.4542C91.9371 95.6836 92.8535 98.0356 92.8535 98.0356C90.9667 99.6927 87.2472 98.1425 87.2472 98.1425C87.945 98.8318 88.4658 99.6769 88.766 100.607C89.0661 101.537 89.1368 102.525 88.9722 103.488C86.223 103.221 83.9589 100.227 83.9589 100.227C85.1988 103.381 82.8269 106.161 82.8269 106.161C82.8269 106.161 79.8621 104.076 80.2394 100.708C80.2394 100.708 78.8378 104.183 76.2503 105.145C75.8571 104.25 75.6815 103.275 75.7376 102.301C75.7938 101.326 76.0802 100.377 76.5738 99.5324C76.5738 99.5324 73.3394 101.991 71.1292 100.815C71.1292 100.815 71.4527 98.3029 74.3097 96.2716C74.3097 96.2716 71.1562 97.3407 68.5417 95.1491Z" fill="#FFEFB4"/>
<path d="M81.1559 98.7306C84.0735 98.7306 86.4387 96.3852 86.4387 93.492C86.4387 90.5988 84.0735 88.2535 81.1559 88.2535C78.2382 88.2535 75.873 90.5988 75.873 93.492C75.873 96.3852 78.2382 98.7306 81.1559 98.7306Z" fill="#FFD900"/>
<path d="M176.839 149.887V149.78C177.325 147.588 177.918 145.45 178.511 143.312C179.858 138.394 181.314 133.316 181.475 128.077C181.637 123.64 180.559 118.883 179.373 113.805C177.81 106.963 176.193 99.9065 177.756 93.492C177.788 93.3551 177.792 93.2134 177.769 93.0748C177.745 92.9362 177.695 92.8036 177.62 92.6845C177.544 92.5654 177.446 92.4621 177.331 92.3805C177.216 92.2989 177.085 92.2407 176.947 92.2091C176.809 92.1775 176.666 92.1732 176.527 92.1964C176.387 92.2196 176.253 92.2699 176.133 92.3443C176.013 92.4188 175.909 92.516 175.826 92.6303C175.744 92.7447 175.685 92.874 175.654 93.0109C173.982 99.9066 175.654 107.23 177.271 114.286C178.403 119.204 179.427 123.854 179.319 127.97C179.157 132.941 177.756 137.913 176.408 142.724C175.707 145.183 175.007 147.748 174.468 150.261V150.475C174.306 151.223 174.144 151.971 173.982 152.773C171.826 162.395 169.4 173.353 169.4 182.654C169.346 194.254 171.988 204.677 177.001 212.803C177.097 212.961 177.231 213.092 177.391 213.186C177.551 213.279 177.732 213.331 177.918 213.337C178.11 213.341 178.299 213.285 178.457 213.177C178.693 213.016 178.861 212.775 178.931 212.499C179 212.224 178.966 211.932 178.834 211.68C174.036 203.929 171.503 193.88 171.503 182.654C171.503 173.567 173.929 162.769 176.031 153.254L176.839 149.887Z" fill="#275217"/>
<path d="M284.868 191.784L235.489 202.742C231.615 203.604 227.555 202.906 224.199 200.801C220.844 198.696 218.468 195.357 217.593 191.517L217.377 190.501C216.508 186.66 217.212 182.633 219.335 179.306C221.457 175.978 224.824 173.622 228.697 172.754L278.075 161.796C281.95 160.935 286.01 161.633 289.366 163.738C292.721 165.842 295.097 169.181 295.972 173.022L296.188 174.037C296.627 175.94 296.682 177.91 296.35 179.834C296.018 181.758 295.305 183.598 294.253 185.247C293.201 186.897 291.83 188.324 290.219 189.446C288.608 190.568 286.789 191.362 284.868 191.784Z" fill="white"/>
<path d="M192.445 185.541C188.672 185.06 185.006 184.044 181.233 183.509C177.459 182.975 173.47 183.028 170.074 184.685C169.433 184.945 168.888 185.392 168.511 185.968C167.972 186.984 168.511 188.267 169.427 188.962C170.384 189.578 171.474 189.963 172.608 190.084C176.058 190.779 179.508 191.421 182.958 192.116C186.246 192.757 189.534 193.452 192.445 195.056" fill="#FFBF8A"/>
<path d="M176.462 93.3316C179.112 93.3316 181.26 91.2016 181.26 88.5742C181.26 85.9467 179.112 83.8167 176.462 83.8167C173.812 83.8167 171.664 85.9467 171.664 88.5742C171.664 91.2016 173.812 93.3316 176.462 93.3316Z" fill="#FFD900"/>
<path d="M261.311 209.542C240.179 206.762 223.684 221.035 212.795 237.499C202.121 253.642 195.114 272.244 187.189 289.777C186.543 291.167 185.896 292.61 185.303 294H276.404C283.843 280.262 293.439 265.348 295.541 249.633C298.129 230.336 282.819 212.428 261.311 209.542Z" fill="#FFD900"/>
<path d="M333.383 146.893C337.814 136.514 338.648 124.971 335.755 114.072C328.855 88.6276 302.657 69.3306 275.865 75.6916C273.008 82.9615 271.607 90.8193 273.008 98.4633C274.086 104.29 276.404 110.277 274.679 115.943C273.871 118.509 272.307 120.807 271.337 123.32C270.367 125.832 269.989 128.879 271.607 131.071C273.008 133.048 275.596 133.797 278.021 133.957C280.447 134.117 282.927 133.957 285.299 134.492C286.748 134.872 288.117 135.505 289.342 136.363C291.768 138.02 293.708 140.639 293.816 143.579C293.924 146.519 292.199 149.352 289.881 151.33C286.667 154.117 282.504 155.588 278.237 155.446C276.404 155.392 274.41 155.072 272.954 156.087C271.499 157.103 271.121 159.081 271.283 160.845C271.377 161.646 271.558 162.434 271.822 163.197L277.86 161.86C281.704 161.004 285.734 161.686 289.074 163.757C292.415 165.829 294.797 169.123 295.703 172.925C295.703 172.979 295.757 173.032 295.757 173.086L295.972 174.101C296.08 174.689 296.188 175.224 296.242 175.812C296.652 179.544 295.611 183.291 293.331 186.289C296.457 194.575 302.98 201.524 307.993 209.061C309.718 211.627 311.336 214.246 312.791 216.919C314.684 220.386 316.34 223.976 317.75 227.663C320.365 226.248 322.746 224.445 324.812 222.317C327.555 219.525 329.715 216.224 331.169 212.603C332.624 208.982 333.344 205.112 333.289 201.215C333.234 197.317 332.405 193.469 330.848 189.89C329.292 186.31 327.039 183.071 324.219 180.356C318.914 175.212 311.852 172.235 304.436 172.017C311.228 169.023 318.074 166.137 323.626 160.898C327.77 156.907 331.085 152.149 333.383 146.893Z" fill="#275217"/>
</svg>
