<svg width="322" height="278" viewBox="0 0 322 278" fill="none" xmlns="http://www.w3.org/2000/svg">
<g clip-path="url(#clip0_426_1816)">
<path d="M242.472 203.162H130.432V287.068H242.472V203.162Z" fill="#D42A7B"/>
<path d="M269.836 173.876C269.488 168.256 269.059 165.739 268.781 160.113C268.161 147.734 266.934 135.497 261.65 124.286C258.38 117.346 254.216 111.791 247.691 108.45C242.033 105.554 234.569 104.72 228.512 103.017C221.447 101.025 215.638 95.4349 209.597 89.243C207.189 93.226 200.174 96.8249 193.366 96.8249C186.84 96.8249 181.218 94.247 178.639 90.5269C178.412 90.7796 178.16 91.0323 177.862 91.3255C172.033 96.7894 164.996 100.795 157.326 103.017C151.27 104.72 144.85 105.246 139.193 108.142C132.672 111.483 127.736 117.746 124.471 124.691C119.192 135.896 117.668 147.734 117.052 160.113C116.77 165.739 116.341 168.256 115.992 173.876C115.947 174.619 115.528 178.875 115.326 182.55L120.706 186.685L132.198 195.52C132.975 196.116 133.808 196.693 134.656 197.284L129.003 234.364C127.62 243.427 134.111 251.666 142.63 251.666H237.864C239.936 251.642 241.974 251.142 243.821 250.203C245.669 249.264 247.276 247.913 248.518 246.252C251.864 241.88 251.481 236.689 251.496 231.387C251.496 227.62 251.504 223.852 251.521 220.085C251.521 213.662 251.535 207.238 251.562 200.812V200.787C251.406 199.809 251.515 198.808 251.875 197.887C252.235 196.966 252.834 196.157 253.611 195.545H253.636L265.128 186.71L270.513 182.575C270.316 178.896 269.897 174.64 269.851 173.897" fill="#005578"/>
<path d="M164.846 73.1444C164.765 74.6051 165.709 75.7323 166.719 76.6825C168.051 77.9361 169.792 78.4415 171.518 78.9167L174.915 79.8467C175.419 79.9781 175.924 80.0084 176.388 80.1651C176.949 80.3521 177.534 80.4128 178.109 80.5493C178.888 80.7656 179.589 81.2027 180.126 81.8079C180.663 82.4131 181.014 83.1608 181.137 83.9611C181.264 85.3258 180.658 87.9542 178.135 90.9869C183.706 96.5418 189.763 97.0473 194.809 97.0473C199.569 97.0473 203.894 95.8494 207.018 93.9135C206.955 92.3684 206.808 90.8279 206.579 89.2987C206.145 86.6097 205.635 83.8752 205.877 81.1406C205.968 80.1297 206.231 78.9419 207.043 78.2545C209.536 76.1417 212.862 75.1005 214.866 72.4013C217.303 69.1209 214.962 64.7083 211.166 64.0563C208.714 63.6368 206.624 65.603 204.176 65.1733C201.234 64.6679 201.305 61.2763 201.855 59.0573C202.905 54.8166 202.304 51.5665 201.35 47.3813C200.578 43.9038 197.025 31.6516 196.167 28.1993C192.165 30.0695 188.011 30.9793 184.559 33.7341C181.531 36.1552 180.35 39.9158 178.336 43.0951C176.207 46.4665 173.012 48.5641 169.484 50.2978C168.445 50.8033 167.092 51.1419 166.83 52.451C166.537 53.9068 167.884 54.7509 168.535 55.8477C169.61 57.6673 168.253 57.8695 167.021 58.8804C165.573 60.0834 166.92 61.3673 167.602 62.5955C166.944 62.6616 166.332 62.9597 165.874 63.4367C165.417 63.9137 165.143 64.5383 165.104 65.1986C165.063 66.5027 166.406 67.18 166.618 68.3729C166.804 69.4394 165.936 70.1369 165.522 71.0518C165.172 71.7028 164.947 72.4146 164.861 73.1494" fill="#FCC7AD"/>
<path d="M118.94 117.372L121.201 125.297L129.68 122.467L130.194 118.079L127.419 115.673L118.94 117.372Z" fill="#F7B89C"/>
<path d="M264.598 60.8568C262.611 63.2646 260.135 65.2219 257.335 66.5987C255.084 67.7057 252.929 68.757 252.208 71.3399C251.486 73.9227 251.819 76.0457 249.114 77.4357C246.631 78.7094 237.708 82.8086 241.13 86.6855C242.422 88.1513 245.006 89.6019 244.158 91.9624C243.845 92.8419 242.205 93.1048 242.492 93.8579C243.022 95.2428 242.876 95.6421 242.19 96.5823C241.503 97.5224 243.436 99.4482 242.876 100.712C241.801 103.138 238.288 104.386 238.273 107.055C238.213 117.265 252.016 113.662 257.29 117.594C259.621 119.333 256.462 126.005 256.876 128.881C257.29 131.757 260.913 141.659 261.186 144.55C270.397 143.438 306.608 152.814 302.116 134.739C300.042 126.424 284.477 123.826 283.66 108.354C283.387 103.153 290.311 96.1173 287.44 91.0374C286.128 88.7174 282.953 87.4588 280.606 88.7275C278.805 89.703 277.492 91.9725 275.448 91.8007C273.404 91.6288 272.526 89.2734 272.047 87.3375C271.451 84.9046 270.854 82.4734 270.255 80.0438C269.624 77.471 269.059 74.5242 270.593 72.3659C271.678 70.8496 273.531 70.1419 275.136 69.1816C276.74 68.2212 278.28 66.5987 277.977 64.7589C277.573 62.2872 274.444 61.5593 271.921 61.3976L264.477 60.8921" fill="#FCC7AD"/>
<path d="M258.703 100.05C258.345 99.3471 257.663 99.1601 257.027 98.9579C255.661 98.5187 254.363 97.8892 253.172 97.0877C251.587 96.0212 250.204 94.6868 248.69 93.5495C247.418 92.5791 243.855 90.0518 242.487 91.9472C242.041 92.6374 241.688 93.3835 241.438 94.1662C241.219 94.6302 241.111 95.1392 241.125 95.6522C241.155 95.7991 241.218 95.9371 241.31 96.0554C241.402 96.1737 241.52 96.2693 241.655 96.3346L249.225 101.076C250.222 101.741 251.274 102.319 252.369 102.804C253.757 103.363 255.244 103.633 256.74 103.598C257.015 103.614 257.29 103.569 257.545 103.465C257.8 103.361 258.028 103.201 258.213 102.996C258.536 102.59 258.749 102.108 258.832 101.595C258.915 101.083 258.865 100.558 258.688 100.07" fill="#005578"/>
<path d="M254.751 84.9669C253.808 85.6297 253.083 86.5575 252.667 87.6331C252.251 88.7086 252.162 89.8836 252.413 91.0095C252.663 92.1353 253.242 93.1615 254.074 93.9584C254.907 94.7552 255.957 95.2868 257.091 95.486C258.226 95.6853 259.394 95.5432 260.448 95.0778C261.501 94.6123 262.394 93.8444 263.012 92.8711C263.63 91.8978 263.946 90.7628 263.92 89.6096C263.894 88.4564 263.528 87.3368 262.866 86.3923C262.427 85.7648 261.869 85.2302 261.223 84.8189C260.577 84.4077 259.857 84.1279 259.104 83.9955C258.35 83.8631 257.578 83.8808 256.831 84.0475C256.084 84.2142 255.377 84.5266 254.751 84.9669Z" fill="#F0A988"/>
<path d="M178.558 224.336C165.124 208.594 153.986 191.025 145.476 172.153L178.558 224.336Z" fill="#D6EDF7"/>
<path d="M186.876 64.6982C186.43 65.7316 185.688 66.6093 184.743 67.2203C183.799 67.8313 182.695 68.1481 181.571 68.1307C180.447 68.1132 179.354 67.7623 178.429 67.1223C177.504 66.4823 176.789 65.582 176.376 64.5352C175.962 63.4884 175.867 62.3422 176.104 61.2416C176.341 60.141 176.898 59.1354 177.705 58.3521C178.513 57.5688 179.534 57.0428 180.64 56.8409C181.746 56.6389 182.887 56.77 183.918 57.2175C185.3 57.8172 186.388 58.942 186.943 60.3447C187.498 61.7475 187.473 63.3133 186.876 64.6982Z" fill="#F0A988"/>
<path d="M67.1233 13.3491C63.5451 18.2823 58.2963 21.9671 52.7902 24.5752C47.284 27.1834 41.3842 28.8514 35.545 30.5092C33.4758 31.0956 31.3258 31.687 29.2011 31.3635C26.4051 30.9389 24.0634 28.9979 22.2515 26.8144C20.4397 24.6308 19.0014 22.1591 17.0734 20.0868C15.6452 18.535 13.798 17.1855 11.6884 16.9428C8.2515 16.5739 5.27385 19.2326 3.05322 21.8862C5.07197 21.593 7.2169 21.8508 8.80666 23.0841C12.0316 25.5811 11.5067 30.4587 11.7692 34.5327C12.0788 39.7654 14.3223 44.6952 18.0626 48.3619C23.16 53.2193 30.7858 55.2209 34.8233 60.973C37.6849 65.0166 38.2552 70.2077 40.1175 74.8022C40.5313 75.8131 41.0562 76.8695 41.9949 77.4458C42.9336 78.022 44.377 77.8804 44.8767 76.8999C44.9709 77.1753 45.1265 77.4257 45.3318 77.6319C45.537 77.838 45.7865 77.9947 46.0613 78.0898C46.3361 78.1849 46.6289 78.2161 46.9175 78.1809C47.2061 78.1457 47.4829 78.0451 47.7268 77.8867C47.9707 77.7283 48.1754 77.5163 48.3253 77.2668C48.4752 77.0173 48.5663 76.7369 48.5917 76.4468C48.6172 76.1568 48.5762 75.8647 48.4721 75.5929C48.3679 75.3211 48.2032 75.0766 47.9906 74.878C48.2163 75.0037 48.4665 75.079 48.724 75.0988C48.9815 75.1186 49.2402 75.0825 49.4825 74.9928C49.7247 74.903 49.9447 74.762 50.1274 74.5791C50.3101 74.3963 50.4512 74.1761 50.541 73.9336C50.6308 73.6911 50.6672 73.432 50.6477 73.1741C50.6281 72.9162 50.5532 72.6655 50.4279 72.4394C50.3026 72.2132 50.13 72.0168 49.9219 71.8636C49.7137 71.7105 49.475 71.6043 49.222 71.5522C50.4787 71.1983 50.9178 69.5303 50.4484 68.292C49.9791 67.0536 48.9344 66.2044 47.925 65.33C44.6934 62.4715 42.1118 58.9519 40.3547 55.0086C38.5227 50.7224 40.9098 49.8783 44.4426 48.7562C47.6369 47.734 50.6352 46.177 53.31 44.1515C62.8991 36.9083 66.6237 24.838 67.2646 13.2682" fill="#EDEFEB"/>
<path d="M11.1029 20.2738C11.073 20.4149 11.0853 20.5618 11.1383 20.6959C11.1913 20.8301 11.2827 20.9456 11.401 21.028C11.5193 21.1103 11.6592 21.1559 11.8032 21.159C11.9473 21.162 12.089 21.1224 12.2107 21.0451C12.3323 20.9678 12.4285 20.8563 12.4872 20.7245C12.5458 20.5927 12.5643 20.4465 12.5403 20.3042C12.5163 20.1619 12.4509 20.0299 12.3524 19.9247C12.2538 19.8195 12.1264 19.7457 11.9861 19.7127C11.8913 19.6904 11.793 19.6873 11.6969 19.7035C11.6009 19.7198 11.509 19.755 11.4267 19.8073C11.3445 19.8596 11.2735 19.9277 11.2179 20.0078C11.1623 20.0879 11.1232 20.1784 11.1029 20.2738Z" fill="#D9B500"/>
<path d="M52.8103 271.935C56.0201 265.925 59.7599 260.147 61.6827 253.49C66.7902 235.8 51.1348 228.117 39.4159 218.776C38.7093 218.213 38.0045 217.65 37.3013 217.088C37.4426 223.957 37.7151 230.892 37.6848 237.776C37.6192 251.929 44.4123 264.762 50.1456 277.247C50.9985 275.402 51.8968 273.623 52.8103 271.935Z" fill="#FFDECF"/>
<path d="M243.416 21.7851C241.439 20.9254 239.263 20.6309 237.129 20.9343C234.995 21.2376 232.987 22.127 231.327 23.5037C229.667 24.8804 228.42 26.6907 227.725 28.7338C227.029 30.7769 226.912 32.973 227.387 35.0785C226.968 34.6691 226.539 34.2749 226.095 33.8907C225 32.9455 223.975 32.0863 222.9 31.2927C216.662 26.3595 207.73 25.485 200.129 26.8801C198.206 27.2074 196.327 27.7517 194.527 28.5026C194.264 28.6188 194.022 28.7452 193.745 28.8867C193.093 29.2395 192.491 29.6762 191.953 30.1857C191.059 31.0124 190.359 32.0272 189.903 33.1573C189.448 34.2874 189.248 35.5046 189.319 36.7213C189.455 40.5122 191.706 42.6856 194.103 45.3746C196.581 48.1546 196.768 50.596 196.122 54.0786C195.582 57.1113 194.89 61.1549 197.252 63.5963C199.695 66.1236 204.787 65.7647 207.805 64.5213C207.846 64.5213 207.886 64.4758 207.931 64.4556V64.4859C208.935 64.0701 210.027 63.9153 211.106 64.036C214.906 64.6881 217.248 69.0906 214.805 72.3811C212.786 75.0802 209.476 76.1215 206.983 78.2342C206.17 78.9217 205.903 80.1196 205.817 81.1204C205.575 83.8549 206.084 86.5945 206.518 89.2784C206.748 90.7958 206.894 92.3245 206.957 93.8578C214.972 95.5815 225.368 90.4865 230.239 84.2542C239.247 72.7501 239.944 55.3523 233.095 42.7261C233.432 42.908 233.768 43.0765 234.104 43.2315C236.944 44.4682 240.158 44.5244 243.039 43.3879C245.92 42.2513 248.232 40.0151 249.467 37.1711C250.702 34.3271 250.758 31.1084 249.623 28.223C248.488 25.3375 246.256 23.0217 243.416 21.7851Z" fill="#4096C2"/>
<path d="M314.733 96.0919C312.402 92.4628 308.566 89.9608 310.146 85.0629C311.291 81.5247 313.956 78.4516 314.269 74.6152C314.637 70.0661 311.115 65.9163 307.133 63.4396C303.151 60.9629 298.553 59.5577 294.596 57.0254C287.364 52.3853 282.363 44.0352 274.045 41.9527C269.458 40.7902 264.33 41.9527 260.924 45.0562C257.709 48.003 256.2 52.82 257.683 56.9445C258.379 59.3024 259.618 61.4633 261.302 63.2526C263.467 65.4159 266.026 67.3973 267.474 70.1925C268.832 72.8158 269.241 75.7979 269.962 78.6386C270.058 79.1441 270.174 79.604 270.291 80.069C270.893 82.502 271.49 84.9332 272.082 87.3627C272.562 89.3087 273.485 91.6591 275.484 91.8259C277.482 91.9927 278.835 89.7283 280.642 88.7527C282.983 87.4841 286.163 88.7527 287.475 91.0627C290.347 96.1475 283.438 103.194 283.695 108.38C284.043 115.011 287.107 119.272 290.65 122.638C298.311 117.741 308.622 116.502 314.168 109.158C316.853 105.549 317.196 99.9233 314.733 96.0919Z" fill="#005578"/>
<path d="M177.054 124.514L178.437 128.78H182.914L179.295 131.413L180.678 135.679L177.054 133.041L173.436 135.679L174.818 131.413L171.195 128.78H175.671L177.054 124.514Z" fill="#D9B500"/>
<path d="M193.81 119.939L195.193 124.205H199.67L196.046 126.839L197.429 131.1L193.81 128.466L190.186 131.1L191.569 126.839L187.951 124.205H192.427L193.81 119.939Z" fill="#D9B500"/>
<path d="M210.182 124.514L211.565 128.78H216.042L212.418 131.413L213.801 135.679L210.182 133.041L206.559 135.679L207.941 131.413L204.323 128.78H208.799L210.182 124.514Z" fill="#D9B500"/>
<path d="M126.631 128.143H126.581C126.379 128.188 126.172 128.229 125.965 128.264L125.738 128.3L125.284 128.365L125.016 128.396L124.592 128.431H124.304H123.875H123.598H123.129H122.881L122.563 128.401L122.23 128.365L121.852 128.31L121.599 128.269H121.508L121.362 128.234C121.11 128.19 120.863 128.134 120.62 128.067L120.297 127.981C120.055 127.917 119.818 127.841 119.586 127.754L119.263 127.637C119.01 127.541 118.758 127.44 118.516 127.329L118.243 127.203C117.986 127.076 117.738 126.945 117.476 126.803L117.355 126.728C117.098 126.576 116.85 126.419 116.603 126.252L116.512 126.192C116.245 126.005 115.982 125.808 115.73 125.6L115.659 125.545C115.397 125.327 115.154 125.105 114.897 124.867C114.389 124.377 113.923 123.844 113.504 123.275C113.302 123.002 113.111 122.719 112.929 122.431L112.883 122.36C112.712 122.077 112.545 121.794 112.379 121.496C112.379 121.471 112.379 121.44 112.338 121.41C112.202 121.142 112.076 120.864 111.96 120.586C111.96 120.546 111.924 120.505 111.909 120.47C111.798 120.197 111.702 119.924 111.612 119.646L111.526 119.378C111.445 119.115 111.374 118.848 111.314 118.58C111.289 118.479 111.268 118.372 111.248 118.271C111.193 118.008 111.147 117.766 111.107 117.483L111.077 117.225C111.046 116.952 111.021 116.679 111.006 116.406C111.006 116.366 111.006 116.325 111.006 116.285V116.214C110.981 115.756 110.981 115.297 111.006 114.839C111.41 108.688 115.881 105.064 121.271 103.062C125.536 101.48 131.622 100.211 132.097 94.6514C132.176 93.5343 131.963 92.4158 131.479 91.4063C130.995 90.3967 130.256 89.5309 129.336 88.8943C128.502 88.3636 127.579 87.9885 126.611 87.7873C123.583 87.3324 121.347 89.6171 118.44 89.9709C118.338 89.9879 118.235 89.9998 118.132 90.0063C117.95 90.0063 117.779 90.0063 117.627 90.0063H117.486H117.294H117.057H116.987H116.881L116.689 89.9658H116.603H116.527C116.452 89.9658 116.381 89.9153 116.305 89.89L116.174 89.8445L116.098 89.8092C115.988 89.7596 115.88 89.704 115.775 89.6424H115.75C115.654 89.5825 115.561 89.5166 115.472 89.4452L115.407 89.3896L115.382 89.3644L115.271 89.2582C115.224 89.2187 115.181 89.1765 115.139 89.1318L115.104 89.0965L115.028 89.0055L114.927 88.8842L114.887 88.8336L114.837 88.7679C114.791 88.7073 114.756 88.6416 114.715 88.5758L114.645 88.4697L114.604 88.3939C114.549 88.2928 114.498 88.1917 114.453 88.0856C114.451 88.0654 114.451 88.0451 114.453 88.0249C114.451 88.0047 114.451 87.9844 114.453 87.9642C114.413 87.8632 114.372 87.7671 114.337 87.661C114.302 87.5548 114.312 87.5902 114.302 87.5548C114.3 87.5414 114.3 87.5278 114.302 87.5144L114.256 87.3577C114.256 87.292 114.216 87.2313 114.201 87.1656V87.0999C114.201 87.0494 114.175 86.9938 114.165 86.9432L114.135 86.8017V86.736C114.135 86.6956 114.135 86.6551 114.11 86.6096C114.085 86.5641 114.074 86.4074 114.059 86.3064V86.2053V86.0738C114.059 85.9626 114.029 85.8464 114.019 85.7301V85.5937C114.019 85.5684 114.019 85.5482 114.019 85.5229C114.019 85.4066 114.019 85.2954 113.994 85.1792C113.968 85.0629 113.994 85.0629 113.994 85.0073V84.9669C113.994 84.9164 113.994 84.8658 113.994 84.8153C113.994 84.7647 113.994 84.7142 113.994 84.6636C113.994 84.6131 113.994 84.517 113.994 84.4463V83.9054C113.994 83.8347 113.994 83.7639 113.994 83.6982C113.994 83.6325 113.994 83.4404 113.994 83.309C113.994 83.1776 113.994 83.1473 113.994 83.0664V82.8187C113.994 82.753 113.994 82.6873 113.994 82.6216V82.571C113.972 81.9335 113.875 81.3008 113.706 80.6857C113.489 79.891 113.181 79.1243 112.788 78.401C112.586 78.022 112.369 77.658 112.131 77.2992C112.041 77.1576 111.945 77.0161 111.849 76.8796C110.885 75.5149 109.275 74.0188 108.059 72.5327L107.771 72.1789C107.292 71.6298 106.86 71.0414 106.479 70.4199C105.093 68.1656 104.442 65.5352 104.617 62.8937C104.617 62.5753 104.672 62.2619 104.718 61.9536L104.763 61.6604C104.798 61.443 104.839 61.2257 104.889 61.0134C104.889 60.9123 104.93 60.8062 104.955 60.7051C105.015 60.4473 105.091 60.1996 105.167 59.9418C105.217 59.775 105.278 59.6133 105.333 59.4364L105.439 59.1533C105.679 58.5282 105.967 57.9231 106.302 57.3438C101.689 59.5072 97.0816 64.2635 94.6945 68.4638C93.1804 71.1124 93.7507 74.1097 91.5553 76.4298C89.8141 78.2747 86.7911 79.968 84.6562 81.1709C83.4399 81.8584 82.1833 82.8086 81.9864 84.3149C81.7442 86.1648 84.0506 86.5288 83.6065 88.1715C83.2481 89.4907 81.5221 89.2178 81.083 91.0475C80.644 92.8773 81.9662 93.4636 82.7838 94.889C81.4262 95.3085 80.1897 95.9808 80.1696 97.482C80.1494 98.9832 81.4161 99.3825 81.3202 100.788C81.1537 103.209 78.711 104.437 79.4731 107.131C80.6086 111.149 86.9122 111.058 90.0463 111.579C92.595 111.999 95.401 111.786 97.8841 112.772C101.23 114.101 101.069 116.891 100.554 120.005C100.69 120.278 100.842 120.546 100.998 120.809C101.01 120.817 101.02 120.829 101.027 120.842C101.034 120.855 101.038 120.87 101.038 120.884C101.139 121.051 101.25 121.218 101.356 121.39L101.523 121.643C101.629 121.799 101.745 121.951 101.856 122.103L102.063 122.376C102.179 122.522 102.295 122.674 102.421 122.815C102.547 122.957 102.578 122.997 102.658 123.083C102.739 123.169 102.911 123.371 103.042 123.513L103.274 123.745C103.521 123.998 103.779 124.251 104.041 124.483L104.384 124.792C104.516 124.903 104.647 125.014 104.783 125.12L105.177 125.434C105.308 125.535 105.444 125.641 105.581 125.737C105.717 125.833 105.878 125.949 106.03 126.055L106.428 126.328L106.999 126.687L107.322 126.889C107.619 127.066 107.922 127.238 108.235 127.395L108.548 127.556C108.77 127.673 108.997 127.784 109.224 127.89L109.608 128.067C109.825 128.168 110.047 128.259 110.269 128.355L110.663 128.517C110.905 128.613 111.167 128.699 111.395 128.79L111.743 128.916C112.106 129.037 112.48 129.159 112.853 129.265C113.227 129.371 113.565 129.457 113.918 129.543L114.276 129.624L114.978 129.77L115.407 129.846L116.028 129.947C116.179 129.947 116.33 129.993 116.487 130.008L117.062 130.074L117.567 130.119L118.072 130.149H118.576H118.945C119.379 130.149 119.808 130.149 120.237 130.149H120.454L121.145 130.094H121.387L122.079 130.008L122.286 129.978C122.528 129.942 122.765 129.902 123.002 129.856L123.118 129.831C124.438 129.578 125.721 129.162 126.939 128.593L126.798 128.153C126.798 128.153 126.641 128.143 126.631 128.143Z" fill="#FFDECF"/>
<path d="M104.627 93.6405C104.545 94.8744 104.1 96.0563 103.348 97.0369C102.596 98.0174 101.57 98.7526 100.401 99.1495C99.2314 99.5463 97.9708 99.5869 96.7784 99.2663C95.586 98.9456 94.5152 98.2781 93.7016 97.348C92.888 96.4179 92.368 95.2671 92.2074 94.0411C92.0467 92.8151 92.2527 91.5689 92.7992 90.4601C93.3457 89.3513 94.2083 88.4297 95.2777 87.8118C96.3472 87.1939 97.5756 86.9075 98.8076 86.9887C99.6258 87.0427 100.425 87.2576 101.161 87.6211C101.896 87.9846 102.553 88.4897 103.093 89.1074C103.633 89.7251 104.047 90.4433 104.31 91.2212C104.573 91.999 104.681 92.8211 104.627 93.6405Z" fill="#FCC7AD"/>
<path d="M178.594 282.756C178.548 282.595 178.498 282.438 178.452 282.281C177.616 279.438 176.605 276.649 175.424 273.931C174.198 271.07 172.835 268.31 171.452 265.723C170.645 264.206 169.802 262.69 168.969 261.219C167.49 258.57 166.032 255.907 164.811 253.132C164.06 251.449 163.423 249.718 162.903 247.951L162.842 247.723C162.025 244.765 161.763 241.68 162.07 238.625C160.958 237.936 159.982 237.047 159.193 236.002C151.623 224.376 157.679 206.867 161.212 201.125C169.681 187.321 178.75 174.943 187.829 164.677C184.135 156.438 180.017 149.059 175.212 143.534C172.863 140.519 169.927 138.013 166.582 136.169C161.136 133.278 154.974 132.763 149.13 131.059C141.702 128.819 134.922 124.821 129.361 119.404C128.857 118.898 128.402 118.458 128.014 118.064C125.339 121.703 120.343 124.13 114.619 124.13C108.482 124.13 103.183 121.319 100.68 117.245C95.0224 122.623 87.7095 128.972 80.6136 131.039C75.6323 132.49 70.3937 133.541 65.473 135.487V135.452C54.824 138.848 46.0627 148.209 43.1607 154.583C37.8867 166.178 36.3676 178.425 35.7469 191.229C35.4642 197.051 35.0353 199.655 34.6921 205.467C34.6466 206.236 34.2278 210.638 34.0259 214.444L39.4008 218.725C51.1196 228.066 66.7751 235.754 61.6676 253.44C59.7448 260.097 56.005 265.874 52.7952 271.884C50.1487 276.737 47.9281 281.81 46.1586 287.048H179.876C179.24 284.925 178.75 283.312 178.594 282.756Z" fill="#E0F2FA"/>
<path d="M81.5778 127.713C82.3047 127.676 83.0318 127.783 83.7176 128.027C84.2509 128.289 84.7329 128.645 85.1409 129.078C86.3852 130.292 87.4813 131.649 88.4062 133.122C88.5363 133.276 88.6302 133.458 88.6808 133.654C88.7315 133.85 88.7377 134.055 88.6989 134.254C88.497 134.815 87.7198 134.87 87.1495 134.699C85.8373 134.299 84.833 133.273 83.7328 132.459C82.6326 131.646 81.2093 130.994 79.9224 131.494L85.6304 143.008C86.0392 143.832 86.4581 144.747 86.2158 145.637C86.1139 145.928 85.9467 146.192 85.7272 146.408C85.5076 146.625 85.2415 146.788 84.9492 146.886C84.6569 146.983 84.3462 147.012 84.0409 146.971C83.7356 146.93 83.4437 146.819 83.1877 146.648C83.5516 147.26 83.66 147.991 83.4895 148.683C83.3189 149.375 82.8831 149.971 82.2765 150.343C81.6698 150.716 80.9412 150.834 80.2483 150.672C79.5555 150.51 78.9543 150.081 78.5749 149.478C78.9786 150.166 78.267 151.08 77.4747 151.176C76.6823 151.272 75.9303 150.833 75.2641 150.393C73.9627 149.539 72.7076 148.616 71.5042 147.628C72.2511 147.987 71.9079 149.271 71.1257 149.544C70.3434 149.817 69.4955 149.433 68.7738 149.013C64.7818 146.698 61.5265 143.14 57.2518 141.396C56.5266 141.176 55.844 140.834 55.2331 140.385C53.82 139.136 54.0672 136.786 55.0766 135.194C56.086 133.602 57.6657 132.464 58.882 131.019C59.4169 130.382 59.9216 129.654 60.6887 129.331C61.4559 129.007 62.2987 129.139 63.0103 128.77C63.8582 128.33 64.3124 127.253 65.2208 126.975C65.7255 126.808 66.2958 126.904 66.7854 126.697C67.5828 126.359 67.8906 125.353 68.6325 124.903C69.5712 124.337 70.7623 124.862 71.7263 125.408C73.1242 126.172 74.7544 127.43 76.2987 127.733C77.8431 128.037 79.8921 127.733 81.5323 127.774" fill="#FCC7AD"/>
<path d="M156.564 117.832C156.597 117.327 156.597 116.82 156.564 116.315L156.665 95.2175C157.018 90.5799 157.039 85.9229 156.731 81.2821C156.568 79.0199 156.288 76.7677 155.893 74.5343C153.99 63.8642 144.285 55.1299 134.055 52.2943C128.468 50.7426 120.509 49.4486 114.297 51.2834C112.144 51.7839 110.159 52.8349 108.533 54.3337C106.908 55.8325 105.699 57.728 105.023 59.8348C104.348 61.9417 104.23 64.188 104.681 66.3542C105.131 68.5204 106.135 70.5326 107.594 72.1941C108.836 73.8014 110.622 75.429 111.672 76.9049C112.926 78.5518 113.672 80.5302 113.817 82.5963C113.57 86.4075 114.07 90.2995 118.147 90.0012C121.281 89.7738 123.578 87.1859 126.848 87.8076C128.405 88.1104 129.799 88.9714 130.768 90.2294C131.737 91.4873 132.215 93.0559 132.112 94.6413C131.638 100.201 125.551 101.47 121.287 103.052C115.902 105.059 111.43 108.673 111.031 114.839C110.857 117.493 111.514 120.136 112.91 122.399C114.306 124.662 116.372 126.432 118.82 127.464C121.268 128.496 123.976 128.737 126.567 128.155C129.159 127.573 131.505 126.196 133.278 124.215C134.778 126.413 136.924 128.087 139.419 129.004C141.913 129.922 144.632 130.037 147.195 129.335C149.758 128.632 152.039 127.147 153.719 125.085C155.399 123.023 156.396 120.487 156.569 117.832" fill="#D42A7B"/>
<path d="M318.73 287.098H323V135.967C318.645 134.643 313.285 134.006 308.869 132.758C301.652 130.705 293.819 125.611 287.672 119.287C286.104 121.589 283.988 123.465 281.516 124.744C279.044 126.023 276.293 126.667 273.51 126.616C266.556 126.616 260.389 123.74 258.117 119.257C257.727 119.748 257.295 120.205 256.825 120.622C250.848 126.284 243.612 130.442 235.714 132.753C229.487 134.522 222.89 135.063 217.076 138.07C211.525 140.951 203.45 148.043 196.546 154.998C184.473 166.714 172.053 182.646 160.713 201.13C157.18 206.872 151.124 224.381 158.694 236.007C161.54 240.379 175.97 245.049 178.882 249.315L208.562 227.763C208.996 228.102 209.43 228.44 209.869 228.774C210.667 229.395 211.525 229.992 212.393 230.604L211.626 269.094C210.202 278.505 216.879 287.053 225.641 287.053H318.503C318.58 287.063 318.656 287.078 318.73 287.098Z" fill="#4096C2"/>
<path d="M202.884 225.589C206.064 228.774 212.721 232.236 216.279 233.747C227.574 238.544 247.161 248.744 258.769 239.848C260.918 238.2 262.549 235.936 264.532 234.111C266.975 231.862 270.452 230.113 273.551 231.301C274.762 231.766 275.792 232.64 277.018 233.075C279.41 233.924 282.019 232.959 284.553 232.792C287.087 232.625 290.256 234 290.155 236.538C290.094 238.018 288.919 239.186 287.773 240.121C287.268 240.546 286.673 241.051 286.663 241.723C286.663 242.542 287.475 243.078 288 243.71C288.487 244.338 288.727 245.122 288.676 245.916C288.625 246.709 288.286 247.456 287.722 248.016C287.287 248.323 286.899 248.693 286.572 249.113C285.921 250.235 286.945 251.64 286.663 252.934C286.466 253.819 285.653 254.451 285.32 255.285C284.709 256.751 285.598 258.434 285.32 260.001C284.846 262.74 281.399 263.615 278.628 263.822C275.549 264.049 272.466 264.171 269.382 264.211H268.731H266.879C265.965 264.211 265.057 264.211 264.143 264.181H263.952C262.862 264.181 261.776 264.12 260.686 264.065C242.437 263.236 223.39 260.729 205.352 257.736C205.352 257.736 170.62 251.969 164.261 244.69L202.884 225.589Z" fill="#FCC7AD"/>
<path d="M220.917 224.356C220.827 223.958 220.718 223.565 220.589 223.178C220.467 222.779 220.387 222.557 220.387 222.557C218.408 216.542 211.681 198.639 211.681 198.639L177.458 225.615L177.549 225.66L177.599 225.615L216.213 244.726C216.132 244.822 216.041 244.913 215.951 245.009L216.218 245.145C223.284 238.069 221.891 228.344 220.917 224.356Z" fill="#E0F2FA"/>
<path d="M177.61 225.589C174.43 228.774 167.773 232.236 164.215 233.747C152.921 238.544 133.334 248.744 121.726 239.848C119.576 238.2 117.946 235.936 115.962 234.111C113.52 231.862 110.042 230.113 106.943 231.301C105.732 231.766 104.703 232.64 103.476 233.075C101.084 233.924 98.4698 232.959 95.9413 232.792C93.4128 232.625 90.2383 234.025 90.3393 236.553C90.3998 238.034 91.5757 239.201 92.7214 240.136C93.2261 240.561 93.8216 241.066 93.8317 241.739C93.8317 242.557 93.0192 243.093 92.4943 243.725C92.0075 244.353 91.767 245.138 91.8181 245.931C91.8692 246.724 92.2085 247.471 92.7719 248.032C93.2073 248.338 93.5951 248.708 93.9225 249.128C94.5736 250.25 93.5491 251.656 93.8317 252.95C94.0285 253.834 94.8411 254.466 95.1742 255.3C95.7848 256.766 94.8966 258.449 95.1742 260.016C95.6486 262.755 99.0956 263.63 101.866 263.837C104.945 264.065 108.029 264.186 111.112 264.226H111.763H113.615C114.529 264.226 115.437 264.226 116.351 264.196H116.538C117.628 264.196 118.713 264.135 119.803 264.08L121.347 263.994L122.735 263.913C125.476 263.736 128.216 263.493 130.941 263.165V263.059C130.941 262.791 173.466 258.211 175.137 257.751C175.137 257.751 209.869 251.984 216.229 244.706L177.61 225.589Z" fill="#FFDECF"/>
<path d="M323 132.935C322.344 132.293 321.673 131.666 321.082 130.963C320.492 130.261 320.043 129.599 319.275 129.275C318.508 128.952 317.666 129.083 316.954 128.714C316.106 128.274 315.652 127.198 314.743 126.92C314.239 126.753 313.668 126.849 313.179 126.647C312.381 126.308 312.074 125.302 311.332 124.852C310.393 124.286 309.197 124.812 308.238 125.333C306.84 126.096 305.21 127.354 303.666 127.658C302.121 127.961 300.077 127.658 298.432 127.708C297.705 127.669 296.978 127.774 296.292 128.016C295.76 128.281 295.278 128.637 294.869 129.068C293.624 130.282 292.528 131.639 291.603 133.111C291.473 133.266 291.379 133.448 291.329 133.644C291.278 133.84 291.272 134.045 291.311 134.244C291.513 134.805 292.29 134.86 292.86 134.688C294.172 134.289 295.177 133.263 296.277 132.449C297.377 131.636 298.8 130.989 300.087 131.484L294.379 142.998C293.97 143.822 293.552 144.737 293.794 145.627C293.896 145.918 294.063 146.182 294.282 146.398C294.502 146.615 294.768 146.778 295.06 146.875C295.353 146.973 295.663 147.002 295.969 146.961C296.274 146.92 296.566 146.809 296.822 146.637C296.458 147.25 296.35 147.981 296.52 148.673C296.691 149.364 297.127 149.961 297.733 150.333C298.34 150.706 299.068 150.823 299.761 150.661C300.454 150.5 301.055 150.071 301.435 149.468C301.031 150.16 301.743 151.07 302.535 151.166C303.327 151.262 304.079 150.823 304.746 150.383C305.962 149.584 307.138 148.715 308.278 147.8C307.865 148.305 308.208 149.316 308.889 149.534C309.671 149.807 310.519 149.422 311.241 149.028C315.233 146.713 318.488 143.155 322.763 141.411L323.025 141.305V132.935H323Z" fill="#FCC7AD"/>
<path d="M160.682 153.117L162.065 157.378H166.542L162.923 160.012L164.306 164.278L160.682 161.639L157.064 164.278L158.446 160.012L154.823 157.378H159.299L160.682 153.117Z" fill="#FFD500"/>
<path d="M193.81 186.669L195.193 190.935H199.67L196.046 193.569L197.429 197.835L193.81 195.196L190.186 197.835L191.569 193.569L187.951 190.935H192.427L193.81 186.669Z" fill="#FFF0B5"/>
<path d="M164.871 136.72L166.254 140.981H170.731L167.112 143.615L168.495 147.881L164.871 145.242L161.253 147.881L162.635 143.615L159.012 140.981H163.488L164.871 136.72Z" fill="#FFD500"/>
<path d="M164.871 169.893L166.254 174.154H170.731L167.112 176.793L168.495 181.054L164.871 178.42L161.253 181.054L162.635 176.793L159.012 174.154H163.488L164.871 169.893Z" fill="#FFD500"/>
<path d="M210.182 182.095L211.565 186.361H216.042L212.418 188.995L213.801 193.256L210.182 190.622L206.559 193.256L207.941 188.995L204.323 186.361H208.799L210.182 182.095Z" fill="#FFF0B5"/>
<path d="M177.054 182.095L178.437 186.361H182.914L179.295 188.995L180.678 193.256L177.054 190.622L173.436 193.256L174.818 188.995L171.195 186.361H175.671L177.054 182.095Z" fill="#FFF0B5"/>
<path d="M227.019 153.107L228.402 157.378H232.883L229.26 160.017L230.642 164.283L227.019 161.644L223.395 164.283L224.778 160.017L221.154 157.378H225.636L227.019 153.107Z" fill="#FFF0B5"/>
<path d="M222.365 136.72L223.748 140.981H228.225L224.601 143.615L225.984 147.881L222.365 145.242L218.742 147.881L220.124 143.615L216.506 140.981H220.982L222.365 136.72Z" fill="#FFF0B5"/>
<path d="M222.446 169.909L223.829 174.175H228.311L224.682 176.813L226.07 181.079L222.446 178.441L218.817 181.079L220.205 176.813L216.577 174.175H221.058L222.446 169.909Z" fill="#FFF0B5"/>
</g>
<defs>
<clipPath id="clip0_426_1816">
<rect width="323" height="278" fill="white"/>
</clipPath>
</defs>
</svg>
