<svg width="46" height="47" viewBox="0 0 46 47" fill="none" xmlns="http://www.w3.org/2000/svg">
<path d="M32.8743 20.865C32.2476 20.9674 30.6372 21.0043 32.1208 22.2741C32.1208 22.2741 32.3951 22.2948 31.6632 22.7252C30.9312 23.1575 33.2952 23.4145 33.5739 23.7263C33.8535 24.0418 31.2307 23.6976 31.2819 24.4866C31.3323 25.2765 30.8314 24.7778 32.5731 26.6371C32.5731 26.6371 31.5265 26.3945 31.4051 26.541C31.2819 26.6901 33.6962 28.6897 33.6809 29.2585C33.6809 29.2585 33.19 29.5991 32.9804 29.3017C32.7718 29.0024 31.3125 27.3893 31.076 27.3426C30.898 27.3075 30.5572 27.3893 30.3989 27.7029C30.3989 27.7029 31.0364 29.1884 30.8377 29.2298C30.6372 29.2711 29.64 28.5693 29.64 28.5693C29.64 28.5693 28.9854 28.8568 29.2012 29.4491C29.4143 30.0422 31.1929 32.0579 31.0913 32.181C31.0913 32.181 30.9402 32.5126 30.71 32.4892C30.4816 32.465 29.2507 30.2399 28.9477 30.1545C28.6446 30.0691 29.301 32.2331 29.301 32.2331C29.301 32.2331 28.1914 31.0649 27.8956 30.8213C27.6007 30.5769 27.5566 31.0801 27.5566 31.0801L27.8776 33.5497C27.8776 33.5497 24.4203 28.3985 25.2655 34.5409C25.2655 34.5409 25.1855 34.8887 25.0713 34.8779C24.9562 34.8653 24.2216 32.8442 24.3052 32.2924C24.3915 31.7389 23.6992 33.8238 23.6992 33.8238C23.6992 33.8238 22.6148 29.5192 20.3695 33.9307C20.3695 33.9307 20.2131 32.2646 19.8669 31.9788C19.5234 31.693 19.2366 31.5394 19.1502 31.5915C19.0648 31.6436 18.2699 32.3994 17.9597 32.4749C17.6504 32.5486 18.207 31.4756 17.7475 31.1763C17.7475 31.1763 17.7889 30.8779 17.5218 30.4484C17.2539 30.0188 16.9958 30.1797 15.4483 31.8458C15.4483 31.8458 16.0948 30.265 16.0894 29.7187C16.085 29.1732 15.4825 29.0483 15.4825 29.0483C15.4825 29.0483 14.3567 29.9038 14.0303 29.7986C13.7021 29.6926 14.5689 28.6456 14.5842 28.3554C14.5887 28.2637 14.4592 28.2997 14.4592 28.2997C14.4592 28.2997 14.3244 28.2026 13.1932 28.8622L11.3589 30.0287C11.224 29.9469 11.0442 29.9622 11.099 29.5272C11.1143 29.4014 14.524 27.8 14.372 27.6311C14.221 27.4639 13.0817 27.1853 13.0817 27.1853C13.0817 27.1853 13.7957 26.3244 13.5826 26.2291C13.3694 26.1366 11.813 26.0081 11.813 26.0081C11.813 26.0081 11.5441 25.5803 11.5999 25.6648C11.6511 25.7501 13.1222 25.432 13.1222 25.432L12.1412 24.6619C12.1412 24.6619 14.6229 24.226 12.4325 22.9077C11.6214 22.4206 10.7753 22.0872 9.86086 21.9218C12.1969 22.0368 13.7426 21.4464 13.4809 20.5918C13.4809 20.5918 13.4063 20.2817 11.0774 19.4307C11.0774 19.4307 11.1422 19.153 11.2977 19.1153C11.4542 19.0775 13.8757 19.9636 13.7048 19.8216C13.5322 19.6787 12.6456 18.6938 12.8057 18.7028C12.9657 18.71 14.1032 19.1908 14.4799 18.8376C14.8414 18.4997 15.068 17.8769 15.3054 17.7421C15.5437 17.6064 14.6723 16.8012 15.8206 17.1724C15.8206 17.1724 16.5984 16.7356 15.9851 16.0221C15.3719 15.3058 13.4288 13.0097 16.5993 15.7821C17.3573 16.4462 19.2536 14.4233 19.0981 13.3234C19.0981 13.3234 19.8561 14.0872 20.017 14.1681C20.1771 14.2508 21.2381 14.3766 21.48 14.009C21.5906 13.8401 21.0907 12.2746 21.4126 11.5853C21.4126 11.5853 21.5474 11.5737 21.6751 11.7192C21.8028 11.8666 21.8172 13.4995 22.3936 13.8095C22.3936 13.8095 23.0401 13.4312 23.1489 13.1481C23.2595 12.865 22.9735 14.9131 24.9131 14.0297C24.9131 14.0297 25.8572 13.1913 26.1278 13.1661C26.3967 13.1409 25.9255 14.1618 26.1629 14.524C26.403 14.8879 27.1979 15.1315 27.4496 14.6768C27.7032 14.2229 28.9135 13.3144 29.0079 13.3503C29.1023 13.3881 28.392 15.2807 28.311 15.4658C28.1923 15.7363 28.1096 16.1371 28.1096 16.1371C28.1096 16.1371 28.2022 16.6655 28.8631 16.8111C28.8631 16.8111 30.1112 16.0823 31.4096 15.1369C31.2738 15.3004 31.1362 15.4703 30.9978 15.6518C30.9978 15.6518 29.3181 17.3764 29.3172 17.6262C29.3199 17.8751 29.8936 18.4359 30.3639 18.1187C30.835 17.8032 31.9716 17.3332 32.0705 17.4141C32.1685 17.495 32.3492 17.7286 32.1127 17.8652C31.8754 18 30.5536 18.6911 30.5536 18.6911C30.5536 18.6911 32.0633 18.7945 33.9111 18.4206C31.9113 19.2312 31.219 20.466 31.2361 20.5828C31.2954 20.9791 34.4029 20.1739 34.4875 20.3698C34.9335 21.3808 33.5029 20.7562 32.8752 20.8623M46.0014 20.9423C45.9825 20.8227 45.6813 20.7149 45.4799 20.5487C44.7938 19.9771 42.3418 17.5651 37.5159 17.7214C36.9053 17.7412 36.3479 17.7987 35.8407 17.885C36.8685 17.5516 37.4008 17.3521 37.7101 17.2299C38.0842 17.0807 40.547 16.2377 41.8724 11.9133C41.9857 11.544 42.3058 10.6525 42.2249 10.5851C42.1269 10.5015 41.2987 10.6498 40.4616 11.1585C39.6218 11.6689 36.801 12.1138 36.4657 12.1677C36.2687 12.1991 35.4406 12.0751 34.2033 12.7239C35.5979 11.2924 37.0771 9.25868 37.4745 6.40182C37.6643 5.03225 37.5842 4.47418 37.5249 4.47777C37.4422 4.48406 37.3954 4.48406 37.2938 4.51462C36.9827 4.60718 36.668 4.86869 35.642 5.55438C34.6152 6.24006 33.5271 7.00033 33.5271 7.00033C33.5271 7.00033 33.8994 3.27086 33.7843 3.18369C33.671 3.09921 31.5517 3.11988 28.3002 6.73882C28.3002 6.73882 28.6698 3.63842 28.0593 2.46835C28.0593 2.46835 27.8902 1.6218 27.758 1.17966C27.6915 0.958587 27.518 0.724934 27.4892 0.744704C27.455 0.76807 27.1673 0.815699 26.7051 1.34591C25.9876 2.1673 22.6534 3.17201 22.1013 7.48381C21.6832 5.74399 20.7966 3.41644 18.608 2.23829C17.3717 1.03138 16.8214 0.670115 16.7584 0.701568C16.7027 0.729427 16.727 1.26773 16.539 2.47823C16.3277 3.83522 16.1389 4.26479 16.1389 4.26479C16.1389 4.26479 13.846 2.24907 13.7858 2.18976C13.6779 2.08372 12.2796 6.50966 12.6906 8.71948C12.6906 8.71948 11.9649 8.15692 10.644 7.47932C9.14422 6.70916 6.62114 6.57616 6.63912 6.69478C6.66969 6.89429 8.76747 10.9931 9.65136 12.4319C9.65136 12.4319 3.99734 11.4604 4.09536 11.8145C4.12773 11.9304 4.2635 12.1524 4.4865 13.096C4.4865 13.096 2.26733 13.0475 2.29611 13.2317C2.32758 13.4366 3.97846 16.1632 4.10525 16.3123C4.10525 16.3123 2.38872 16.6439 2.02635 16.6637C1.78088 16.6772 3.1728 20.5199 6.9898 21.4797C7.56707 21.6244 8.12456 21.7322 8.65687 21.8068C7.40522 21.7834 6.02139 22.044 4.43165 22.6327C4.43165 22.6327 3.51089 22.9912 3.02444 23.3759C2.53709 23.7632 0.114707 24.1703 -0.00488281 24.5226C0.0517652 24.7823 2.9543 26.7665 2.9543 26.7665C2.9543 26.7665 1.25396 27.5969 1.13707 27.7524C1.05704 27.8611 0.992302 27.9582 1.01298 27.9878C1.03277 28.0175 1.14786 28.1532 1.44189 28.3365C2.12167 28.7589 8.17491 29.3906 8.54807 29.2415C8.92033 29.0941 5.25979 33.2046 5.20314 35.276C5.20314 35.276 5.80199 35.3192 6.14098 35.347C6.40084 35.3677 5.03769 37.9388 5.28406 37.928C6.92866 37.8588 9.65675 36.2682 10.1684 35.9024C10.68 35.5375 11.3796 34.9956 11.5666 34.8186C11.7554 34.6416 10.3734 37.1111 10.939 39.2832C10.939 39.2832 11.1188 40.9691 11.1287 41.3097C11.1377 41.6485 11.617 41.6503 11.6125 41.8767C11.608 42.1544 12.9459 40.8208 13.5799 40.3077C14.2138 39.7954 15.0752 38.8069 15.4915 38.1536C15.9078 37.5029 15.5365 43.2598 15.3674 44.3669C15.3126 44.7255 15.3944 44.7624 15.451 44.8819C15.4681 44.9187 16.0598 44.4316 16.2477 44.3067C16.5273 44.1216 19.4137 40.2412 19.5962 39.2706C19.5962 39.2706 21.1356 46.0304 21.658 46.7547C21.7713 46.9111 21.8657 47.0872 21.944 46.965C22.0977 46.7242 22.327 46.0924 22.5006 46.0403C22.7227 45.9738 23.3737 45.892 23.7145 44.9277C24.057 43.9643 24.6721 43.0225 24.9607 40.5197C24.9607 40.5197 28.2337 44.6905 28.659 45.0787C28.8281 45.2333 29.7173 43.755 30.1085 41.3798C30.5014 39.0037 29.6571 35.8116 29.1239 35.7029C29.1239 35.7029 28.9009 35.3524 29.5213 35.5744C29.8747 35.702 31.237 38.0637 34.3778 39.8583C34.9065 40.1603 36.0305 40.1657 36.0367 40.145C36.2894 39.4395 33.8239 32.9934 33.8239 32.9934C33.8239 32.9934 33.885 32.9197 34.3823 33.1228C34.8777 33.3268 39.5849 36.3688 42.4407 34.9426C43.0197 34.6541 43.053 34.593 43.053 34.593C43.3803 33.1875 40.8653 30.5302 39.3205 29.3232C39.3205 29.3232 43.3767 29.1588 43.9989 28.0831C43.9989 28.0831 44.7471 27.8135 45.1328 27.2806C45.2002 27.1871 44.6958 26.2624 44.1113 25.8562C42.5791 24.7949 42.2473 24.3949 42.2473 24.3949C42.2473 24.3949 42.6754 23.8782 43.294 23.6841C43.9126 23.49 45.9124 22.2579 45.3783 21.6504C45.3783 21.6504 46.0221 21.0914 45.9987 20.945" fill="white"/>
</svg>
