<svg width="44" height="65" viewBox="0 0 44 65" fill="none" xmlns="http://www.w3.org/2000/svg">
<path d="M36.999 20.7618C36.999 10.9524 28.9411 3 18.9995 3C9.05792 3 1 10.9524 1 20.7618C1 22.3562 1.21314 23.9024 1.61253 25.3727C1.88999 26.3959 2.25962 27.3812 2.70894 28.3229L19.0005 62L35.292 28.3229H35.2911C36.3865 26.0283 37 23.4666 37 20.7618H36.999Z" fill="#008939" stroke="white" stroke-width="2"/>
<path d="M18.5 29C22.6421 29 26 25.6421 26 21.5C26 17.3579 22.6421 14 18.5 14C14.3579 14 11 17.3579 11 21.5C11 25.6421 14.3579 29 18.5 29Z" fill="white"/>
<path d="M34 19C38.9706 19 43 14.9706 43 10C43 5.02944 38.9706 1 34 1C29.0294 1 25 5.02944 25 10C25 14.9706 29.0294 19 34 19Z" fill="white" stroke="#008939" stroke-width="2"/>
<path d="M38.4928 8.29473H35.7053V5.50716C35.7053 5.22732 35.478 5 35.1981 5H32.8019C32.522 5 32.2947 5.22732 32.2947 5.50716V8.29473H29.5072C29.2273 8.29473 29 8.52205 29 8.80189V11.1981C29 11.478 29.2273 11.7053 29.5072 11.7053H32.2947V14.4928C32.2947 14.7727 32.522 15 32.8019 15H35.1981C35.478 15 35.7053 14.7727 35.7053 14.4928V11.7053H38.4928C38.7727 11.7053 39 11.478 39 11.1981V8.80189C39 8.52205 38.7727 8.29473 38.4928 8.29473Z" fill="#0BA1DD"/>
</svg>
