<svg width="85" height="201" viewBox="0 0 85 201" fill="none" xmlns="http://www.w3.org/2000/svg">
<g style="mix-blend-mode:multiply" opacity="0.58">
<path d="M42.2431 200.999C61.7612 200.999 77.5838 199.821 77.5838 198.368C77.5838 196.915 61.7612 195.737 42.2431 195.737C22.7249 195.737 6.90234 196.915 6.90234 198.368C6.90234 199.821 22.7249 200.999 42.2431 200.999Z" fill="#D9D9D9"/>
</g>
<path fill-rule="evenodd" clip-rule="evenodd" d="M30.82 82.4128L45.4588 141.19L59.2458 191.653L64.5107 190.887C63.3976 173.12 71.7585 160.739 61.1499 139.114L56.658 99.0738L41.5826 84.4779L30.8164 82.4092L30.82 82.4128Z" fill="#005437"/>
<path fill-rule="evenodd" clip-rule="evenodd" d="M45.1149 7.45421C45.1149 7.45421 46.3013 15.1042 57.2628 16.0749C63.866 16.6597 66.0951 22.4479 68.5119 29.5967C72.3788 41.034 83.8276 36.1488 84.6705 52.881C85.1898 63.1407 76.0739 71.4352 59.8314 62.2297C43.5889 53.0242 18.1186 66.1561 16.0334 31.3471C15.6738 25.3321 26.2638 25.348 25.9842 19.8104C25.6766 13.7357 28.5448 7.12402 28.5448 7.12402L45.1069 7.45421H45.1149Z" fill="#DC8D3C"/>
<path fill-rule="evenodd" clip-rule="evenodd" d="M29.4041 29.8862C18.0474 28.3328 -1.45905 51.4077 0.319797 63.4337C0.527389 64.8475 2.0199 61.2254 2.58899 62.7143C9.76881 81.4549 28.1228 44.7469 28.1228 44.7469L29.4041 29.8826V29.8862Z" fill="#F9FAFB"/>
<path fill-rule="evenodd" clip-rule="evenodd" d="M49.284 73.2158L22.0716 74.3504C14.5482 88.1768 15.6827 104.917 15.6827 104.917C15.6827 104.917 15.1996 138.457 15.579 139.853L25.1497 191.79L30.1175 191.933C30.9587 177.652 37.9524 162.269 30.5363 142.126L35.9301 106.345C45.2002 106.155 56.1632 113.342 57.3157 98.0696C58.6328 80.6104 49.284 73.2158 49.284 73.2158Z" fill="#005437"/>
<path fill-rule="evenodd" clip-rule="evenodd" d="M29.5079 11.3926C29.5079 11.3926 22.8256 16.9188 28.1156 24.3635C33.4092 31.8118 33.9461 25.3979 33.9461 25.3979C33.9461 25.3979 34.2074 13.7155 29.5079 11.3926Z" fill="#DC8D3C"/>
<path fill-rule="evenodd" clip-rule="evenodd" d="M26.3625 30.2478L37.9697 28.8555L41.1588 28.9736L53.3244 33.2006C57.4297 35.2228 59.3803 39.9867 57.8771 44.3103L51.9679 61.2792C55.25 71.7912 55.411 82.6361 54.9994 93.4631C43.3671 95.1775 20.3244 96.4267 14.8018 88.5131C15.4424 66.8412 18.1698 44.2101 26.3589 30.2478H26.3625Z" fill="#F9FAFB"/>
<path fill-rule="evenodd" clip-rule="evenodd" d="M32.236 21.4572C32.236 21.4572 33.1594 26.6972 33.9254 31.0387C34.1294 32.1948 34.9419 33.1504 36.0478 33.5405C37.1574 33.9307 38.3886 33.6909 39.2691 32.9178C39.559 32.6636 39.8382 32.4167 40.1066 32.184C41.3164 31.121 41.8067 29.4567 41.3629 27.9105C40.2283 23.9412 38.1595 16.7148 38.1595 16.7148L32.2324 21.4537L32.236 21.4572Z" fill="#FAD8B3"/>
<path fill-rule="evenodd" clip-rule="evenodd" d="M34.9271 23.4002C34.9271 23.4002 38.0016 23.9156 39.5442 22.917C39.5442 22.917 37.5757 26.3172 34.8877 26.3781L34.9271 23.4002Z" fill="#E2BC93"/>
<path fill-rule="evenodd" clip-rule="evenodd" d="M43.6986 11.0779C43.7413 9.01377 42.0981 7.30946 40.0274 7.26685C37.819 7.22424 35.036 7.16743 32.8276 7.12482C30.7569 7.08221 29.3654 8.75339 29.0045 10.7844C28.577 13.1799 28.8525 18.1792 29.4936 21.7819C29.8546 23.8129 31.4218 25.7113 33.4925 25.754C35.7009 25.7966 42.3593 23.8319 43.0812 19.9119C43.6273 16.9246 43.6416 14.1173 43.7033 11.0826L43.6986 11.0779Z" fill="#FAD8B3"/>
<path fill-rule="evenodd" clip-rule="evenodd" d="M47.4144 11.9579C47.4144 11.9579 45.7164 4.84504 42.0702 3.34341C37.1742 1.32261 31.6464 1.33331 28.1287 7.74359C28.1287 7.74359 31.4003 18.5102 47.4144 11.9579Z" fill="#DC8D3C"/>
<path fill-rule="evenodd" clip-rule="evenodd" d="M41.4481 21.1068C40.9864 22.3022 39.8088 22.9608 38.821 22.5778C37.8331 22.1948 37.4036 20.9171 37.8653 19.7216C38.3271 18.5262 39.5046 17.8676 40.4925 18.2506C41.4803 18.6336 41.9098 19.9113 41.4481 21.1068Z" fill="#FAD8B3"/>
<path fill-rule="evenodd" clip-rule="evenodd" d="M25.1481 191.79L20.5167 194.904C19.6255 195.645 18.5159 196.074 17.3599 196.128L16.1823 196.182C15.6562 196.207 15.2052 196.565 15.0656 197.073C14.8723 197.767 15.3197 198.48 16.032 198.605L29.0316 198.365C29.0316 198.365 32.0989 197.746 30.116 191.933L25.1481 191.79Z" fill="#180F33"/>
<path fill-rule="evenodd" clip-rule="evenodd" d="M23.3811 59.5321C23.3811 59.5321 26.9889 55.1405 29.727 57.8427C32.465 60.545 27.4828 67.664 24.7555 66.1965C22.0318 64.7291 23.3811 59.5321 23.3811 59.5321Z" fill="#FAD8B3"/>
<path fill-rule="evenodd" clip-rule="evenodd" d="M23.857 71.9992L19.2685 71.2798C17.4037 70.9863 15.6607 69.2862 15.3922 67.5002L13.3163 53.7132C13.0479 51.9272 14.3507 50.7031 16.2154 50.9966L20.8039 51.716C22.6687 52.0095 24.4117 53.7096 24.6802 55.4956L26.7561 69.279C27.0245 71.065 25.7217 72.2891 23.857 71.9956V71.9992Z" fill="#1B2E14"/>
<path fill-rule="evenodd" clip-rule="evenodd" d="M23.857 71.9992L19.2685 71.2798C17.4037 70.9863 15.6607 69.2862 15.3922 67.5002L13.3163 53.7132C13.0479 51.9272 14.3507 50.7031 16.2154 50.9966L20.8039 51.716C22.6687 52.0095 24.4117 53.7096 24.6802 55.4956L26.7561 69.279C27.0245 71.065 25.7217 72.2891 23.857 71.9956V71.9992Z" fill="black" fill-opacity="0.2"/>
<path fill-rule="evenodd" clip-rule="evenodd" d="M12.2702 59.4567C12.2702 59.4567 18.4156 54.5282 20.5703 58.0716C22.7249 61.6185 17.1701 65.1082 14.9581 64.6573C12.7498 64.2099 12.2666 59.4532 12.2666 59.4532L12.2702 59.4567Z" fill="#FAD8B3"/>
<path fill-rule="evenodd" clip-rule="evenodd" d="M12.2709 59.4577C12.2709 59.4577 -0.825329 60.5207 0.101677 64.8228C1.02868 69.1286 5.24495 73.8209 14.9624 64.6582C24.6799 55.4955 12.2709 59.4541 12.2709 59.4541V59.4577Z" fill="#FAD8B3"/>
<path fill-rule="evenodd" clip-rule="evenodd" d="M32.8727 94.6164C32.8727 94.6164 50.7901 91.6958 49.7342 68.875L54.8238 72.4184C54.8238 72.4184 57.8697 81.8889 57.9627 92.2828C57.9627 92.2828 47.7227 98.7002 32.8691 94.6128L32.8727 94.6164Z" fill="#D9D9D9"/>
<path fill-rule="evenodd" clip-rule="evenodd" d="M46.4629 73.3909C46.4629 73.3909 63.2241 79.25 65.2679 60.9174C67.4225 41.6078 60.5076 37.2412 53.972 33.5582C47.4364 29.8753 46.3877 47.5635 48.2274 52.3167C50.0671 57.0734 46.4629 73.3909 46.4629 73.3909Z" fill="#F9FAFB"/>
<path fill-rule="evenodd" clip-rule="evenodd" d="M27.6328 56.9199C27.6328 56.9199 41.3983 58.1333 46.2731 64.7583C51.1444 71.3834 47.1286 73.3161 44.956 73.1515C42.7834 72.9832 29.6336 63.0045 29.6336 63.0045L27.6328 56.9199Z" fill="#FAD8B3"/>
<path fill-rule="evenodd" clip-rule="evenodd" d="M26.0789 144.319C27.2708 148.492 26.9129 183.658 26.8126 191.84L30.1162 191.936C30.9573 177.656 37.951 162.272 30.535 142.129L35.9288 106.348H30.7819C30.7819 106.348 24.726 139.595 26.0789 144.319Z" fill="#145F32"/>
<path fill-rule="evenodd" clip-rule="evenodd" d="M49.8271 61.8018L52.576 50.71L53.3204 50.9533V58.6056C53.3204 58.6056 52.9088 60.8533 49.8271 61.8018Z" fill="#D9D9D9"/>
<path fill-rule="evenodd" clip-rule="evenodd" d="M33.0166 25.8946L33.4604 28.4036L36.2665 25.2217L33.0166 25.8946Z" fill="#E1BA8F"/>
<path fill-rule="evenodd" clip-rule="evenodd" d="M60.8735 139.255L56.4997 102.293C57.3695 100.11 57.552 95.9474 57.3838 92.6152L54.2305 93.9968C54.2305 93.9968 54.7459 97.6798 52.4911 103.435C50.2362 109.187 56.8362 140.007 57.4411 141.242C58.0459 142.473 65.1685 159.664 61.3066 188.73C61.1813 189.672 61.8399 190.516 62.7561 191.246L64.2343 191.032C63.1212 173.265 71.4821 160.884 60.8735 139.259V139.255Z" fill="#145F32"/>
<path fill-rule="evenodd" clip-rule="evenodd" d="M58.8402 189.764C58.8402 189.764 58.6075 194.256 59.0907 196.908C59.173 197.359 59.4916 197.796 59.9426 198.071C60.3935 198.35 60.9268 198.436 61.3671 198.307C62.3155 198.028 63.4036 197.71 64.0729 197.513C64.4917 197.391 64.8245 197.137 65.0178 196.79C65.1359 196.582 65.2755 196.332 65.4223 196.067C66.0987 194.861 65.5332 193.844 64.778 192.405C63.9978 190.916 63.332 189.166 63.332 189.166C60.6262 187.878 58.8366 189.764 58.8366 189.764H58.8402Z" fill="#180F33"/>
<path fill-rule="evenodd" clip-rule="evenodd" d="M30.3066 22.4268H33.0161C33.0161 22.4268 32.966 24.2772 31.6631 24.1233C30.3603 23.9694 30.3102 22.4268 30.3102 22.4268H30.3066Z" fill="white"/>
</svg>
