<svg width="111" height="109" viewBox="0 0 111 109" fill="none" xmlns="http://www.w3.org/2000/svg">
<path fill-rule="evenodd" clip-rule="evenodd" d="M93.5902 25.0286C103.362 30.7944 103.646 60.1755 105.314 70.1433C106.088 74.7803 103.299 91.4631 100.978 95.5104C100.209 96.8484 89.593 96.0415 88.1547 96.2965C82.067 97.3794 53.2838 97.8268 49.5375 93.6457C45.8163 89.4938 56.2232 79.4297 55.504 74.5168C51.7243 48.7024 66.3165 23.8746 66.3165 23.8746C66.3165 23.8746 83.0035 18.782 93.5861 25.0286H93.5902Z" fill="white"/>
<path fill-rule="evenodd" clip-rule="evenodd" d="M63.9834 81.8468C63.9834 81.8468 83.6892 78.7527 89.2418 56.9772C91.5582 47.9041 90.1742 41.4526 92.2606 40.8338C96.1366 39.6839 101.861 46.8588 101.861 46.8588C101.861 46.8588 107.367 69.5751 104.842 76.4573C102.316 83.3395 67.9054 87.4704 67.9054 87.4704L63.9792 81.8468H63.9834Z" fill="#D9D9D9"/>
<g style="mix-blend-mode:multiply" opacity="0.58">
<path d="M67.9096 108.29C91.3178 108.29 110.294 106.877 110.294 105.133C110.294 103.39 91.3178 101.977 67.9096 101.977C44.5013 101.977 25.5251 103.39 25.5251 105.133C25.5251 106.877 44.5013 108.29 67.9096 108.29Z" fill="#AEA7C4"/>
</g>
<path fill-rule="evenodd" clip-rule="evenodd" d="M66.3208 23.8753C66.3208 23.8753 47.7355 25.6774 35.5725 60.0799L48.0115 62.6346L66.4337 47.9044L66.3208 23.8711V23.8753Z" fill="white"/>
<path fill-rule="evenodd" clip-rule="evenodd" d="M75.7619 107.683C75.7619 107.683 88.1674 106.914 87.3604 102.281C86.5535 97.6487 73.6504 101.487 73.6504 101.487L75.7661 107.683H75.7619Z" fill="white"/>
<path d="M6.97755 10.0234H34.8032C38.2652 10.0234 41.0749 12.8332 41.0749 16.2952V24.231C41.0749 27.693 38.2652 30.5028 34.8032 30.5028H6.97755C3.51555 30.5028 0.705811 27.693 0.705811 24.231V16.2952C0.705811 12.8332 3.51555 10.0234 6.97755 10.0234Z" fill="#9377D4"/>
<path fill-rule="evenodd" clip-rule="evenodd" d="M32.353 29.5376L43.7425 33.7021L40.1927 23.2617L32.353 29.5376Z" fill="#9377D4"/>
<path fill-rule="evenodd" clip-rule="evenodd" d="M15.3274 19.3734C15.3274 20.2807 14.5915 21.0166 13.6884 21.0166C12.7852 21.0166 12.0452 20.2807 12.0452 19.3734C12.0452 18.4661 12.781 17.7344 13.6884 17.7344C14.5957 17.7344 15.3274 18.4703 15.3274 19.3734Z" fill="white"/>
<path fill-rule="evenodd" clip-rule="evenodd" d="M21.7915 19.3734C21.7915 20.2807 21.0556 21.0166 20.1483 21.0166C19.241 21.0166 18.5051 20.2807 18.5051 19.3734C18.5051 18.4661 19.241 17.7344 20.1483 17.7344C21.0556 17.7344 21.7915 18.4703 21.7915 19.3734Z" fill="white"/>
<path fill-rule="evenodd" clip-rule="evenodd" d="M28.2598 19.3734C28.2598 20.2807 27.5239 21.0166 26.6207 21.0166C25.7176 21.0166 24.9775 20.2807 24.9775 19.3734C24.9775 18.4661 25.7134 17.7344 26.6207 17.7344C27.528 17.7344 28.2598 18.4703 28.2598 19.3734Z" fill="white"/>
<path fill-rule="evenodd" clip-rule="evenodd" d="M69.854 15.1116C69.854 15.1116 71.0665 21.9855 72.07 27.676C72.3376 29.1938 73.4038 30.4481 74.8547 30.9582C76.3055 31.4683 77.9236 31.1589 79.0818 30.1429C79.4623 29.8126 79.8303 29.4865 80.1815 29.1812C81.7703 27.7889 82.41 25.6064 81.833 23.5785C80.3445 18.3771 77.631 8.89844 77.631 8.89844L69.8582 15.1158L69.854 15.1116Z" fill="#ED6C6C"/>
<path fill-rule="evenodd" clip-rule="evenodd" d="M64.5479 5.88477C64.5479 5.88477 59.7856 9.50147 65.0789 13.5028C70.3723 17.5 64.5479 5.88477 64.5479 5.88477Z" fill="#180F33"/>
<path fill-rule="evenodd" clip-rule="evenodd" d="M63.7827 11.7833C63.4482 9.99381 63.8664 8.14574 64.9409 6.67397C66.0155 5.2022 67.6461 4.24053 69.4524 4.01057C72.9478 3.56737 76.1799 5.92136 76.828 9.38754C77.2001 11.382 77.6057 13.5603 77.9611 15.4502C78.1994 16.7297 77.9025 18.0467 77.1332 19.1004C76.368 20.1499 75.2015 20.8397 73.9137 21.0028C72.7179 21.1533 71.4468 21.3164 70.2719 21.4669C67.7047 21.793 65.3298 20.062 64.8573 17.5199C64.5312 15.7638 64.1465 13.715 63.7869 11.7875L63.7827 11.7833Z" fill="#ED6C6C"/>
<path fill-rule="evenodd" clip-rule="evenodd" d="M73.5583 7.47703C73.5583 7.47703 74.0809 13.5564 78.7387 12.6324C78.7387 12.6324 79.876 6.78296 79.5206 3.99412C78.86 -1.19052 68.4823 0.126547 64.8656 3.22479C61.2489 6.32303 64.6608 9.63869 73.5583 7.47703Z" fill="#180F33"/>
<path fill-rule="evenodd" clip-rule="evenodd" d="M78.0739 10.1937C77.1875 10.1728 76.4432 11.0759 76.414 12.209C76.3847 13.3421 77.083 14.2829 77.9735 14.3038C78.86 14.3247 79.6042 13.4216 79.6335 12.2885C79.6627 11.1554 78.9645 10.2146 78.0739 10.1937Z" fill="#ED6C6C"/>
<path fill-rule="evenodd" clip-rule="evenodd" d="M70.2051 8.04854C70.2051 8.04854 58.7279 9.74609 60.2038 4.14751C61.5669 -1.02876 71.6895 6.89872 72.9396 4.74124L70.2051 8.04854Z" fill="#180F33"/>
<path fill-rule="evenodd" clip-rule="evenodd" d="M67.6172 17.52L70.8492 17.1855C70.8492 17.1855 71.0123 19.3974 69.4402 19.3765C67.8681 19.3514 67.6172 17.52 67.6172 17.52Z" fill="white"/>
<path fill-rule="evenodd" clip-rule="evenodd" d="M61.3368 54.4057C61.3368 54.4057 65.6643 49.1374 68.9465 52.3778C72.2287 55.6182 66.2538 64.1562 62.9842 62.3959C59.7145 60.6356 61.3368 54.4015 61.3368 54.4015V54.4057Z" fill="#ED6C6C"/>
<path fill-rule="evenodd" clip-rule="evenodd" d="M63.4817 68.6672L57.9124 68.5125C55.6504 68.4498 53.3131 66.6937 52.7194 64.6073L48.1369 48.5266C47.5431 46.4444 48.9062 44.7886 51.1682 44.8513L56.7375 45.006C58.9995 45.0688 61.3368 46.8248 61.9305 48.9112L66.5131 64.992C67.1068 67.0742 65.7437 68.7299 63.4817 68.6672Z" fill="#180F33"/>
<path fill-rule="evenodd" clip-rule="evenodd" d="M48.0115 54.3154C48.0115 54.3154 55.3829 48.4033 57.9668 52.6555C60.5508 56.9078 53.886 61.0931 51.2393 60.5537C48.5885 60.0185 48.0115 54.3154 48.0115 54.3154Z" fill="#ED6C6C"/>
<path fill-rule="evenodd" clip-rule="evenodd" d="M48.0116 54.3139C48.0116 54.3139 32.3071 55.5891 33.4151 60.7529C34.5273 65.9166 39.5823 71.5444 51.2394 60.5563C62.8965 49.5682 48.0116 54.318 48.0116 54.318V54.3139Z" fill="#ED6C6C"/>
<path fill-rule="evenodd" clip-rule="evenodd" d="M56.8128 76.5704C56.8128 76.5704 33.8666 64.5997 27.2144 80.8937C21.5155 94.8505 61.9473 105.27 73.6545 107.971C75.4692 108.389 77.3256 107.498 78.1326 105.818L82.9451 95.8079L56.8128 76.5704Z" fill="#180F33"/>
<path fill-rule="evenodd" clip-rule="evenodd" d="M90.2788 102.087C90.2788 102.087 114.772 93.7375 107.572 77.6818C100.372 61.6262 53.2881 94.3981 53.2881 94.3981L57.2226 104.809C57.8623 106.507 59.6225 107.506 61.4079 107.192L90.283 102.091L90.2788 102.087Z" fill="#180F33"/>
<path fill-rule="evenodd" clip-rule="evenodd" d="M55.2281 100.223C55.2281 100.223 42.877 101.598 43.9097 106.189C44.9425 110.78 57.6448 106.31 57.6448 106.31L55.2281 100.227V100.223Z" fill="white"/>
<path fill-rule="evenodd" clip-rule="evenodd" d="M91.5585 23.9922C91.5585 23.9922 107.388 28.2402 107.618 55.8568C107.848 83.4734 80.9927 66.87 80.9927 66.87L82.5857 56.7599L84.8812 56.5843C90.0742 56.1829 93.9417 51.6297 93.4943 46.4408L91.5585 23.9964V23.9922Z" fill="white"/>
<path fill-rule="evenodd" clip-rule="evenodd" d="M66.4336 51.2715C66.4336 51.2715 82.945 52.7265 88.7903 60.6749C94.6355 68.6191 89.8146 70.9397 87.2098 70.739C84.6049 70.5383 68.8336 58.5718 68.8336 58.5718L66.4336 51.2757V51.2715Z" fill="#ED6C6C"/>
<path fill-rule="evenodd" clip-rule="evenodd" d="M70.9658 21.3745L71.4968 24.385L74.8627 20.0449C73.6543 21.1028 71.9484 21.2491 70.9658 21.3745Z" fill="#A12A2A"/>
</svg>
