<svg width="214" height="155" viewBox="0 0 214 155" fill="none" xmlns="http://www.w3.org/2000/svg">
<path d="M143.14 81.5253C143.14 81.5253 138.477 61.8041 151.904 52.7478C165.33 43.6916 163.561 38.085 167.997 32.0406C175.224 22.1889 192.779 15.5605 192.779 15.5605C192.779 15.5605 197.629 36.9292 184.086 47.7371C176.642 53.6803 172.498 58.8281 172.185 66.8595C171.72 78.8144 151.534 88.8686 143.137 81.5253H143.14Z" fill="#0AB57A"/>
<path d="M180.89 31.1133C160.623 55.4907 141.745 78.894 124.336 115.679" stroke="#42373B" stroke-width="2.93" stroke-linecap="round" stroke-linejoin="round"/>
<path d="M155.985 75.2624C155.985 75.2624 179.561 51.0816 213.46 76.2247C213.46 76.2247 203 90.5389 185.677 79.0488C185.677 79.0488 163.26 109.194 141.045 93.5001C144.447 87.7565 147.405 82.1082 155.985 75.2654V75.2624Z" fill="#13C788"/>
<path d="M192.866 72.2734C192.866 72.2734 142.18 74.5613 135.656 119.488" stroke="#42373B" stroke-width="2.93" stroke-linecap="round" stroke-linejoin="round"/>
<path d="M140.625 82.2809C140.625 82.2809 126.153 68.0948 132.671 53.2711C139.189 38.4444 134.7 34.6492 135.221 27.1718C136.076 14.9816 147.379 0 147.379 0C147.379 0 162.89 15.4761 157.209 31.8489C154.087 40.8485 153.334 47.4143 157.355 54.3704C163.346 64.7285 151.645 84.0058 140.625 82.2809Z" fill="#13C788"/>
<path d="M145.624 19.502L141.429 97.2756" stroke="#42373B" stroke-width="2.93" stroke-linecap="round" stroke-linejoin="round"/>
<path d="M29.5816 114.813L127.243 114.812C138.267 114.812 147.203 105.876 147.203 94.853V69.5848C147.203 58.5614 138.267 49.6253 127.243 49.6253L29.5816 49.6253C18.5583 49.6253 9.6221 58.5614 9.6221 69.5848V94.853C9.6221 105.876 18.5583 114.813 29.5816 114.813Z" fill="#836ABD"/>
<g style="mix-blend-mode:multiply" opacity="0.58">
<path d="M82.4089 154.497C116.968 154.497 144.983 152.96 144.983 151.065C144.983 149.169 116.968 147.633 82.4089 147.633C47.8498 147.633 19.8342 149.169 19.8342 151.065C19.8342 152.96 47.8498 154.497 82.4089 154.497Z" fill="#AEA7C4"/>
</g>
<path d="M139.612 151.526C141.102 151.13 142.058 149.679 141.841 148.154L139.46 131.549L128.995 134.34L136.058 149.846C136.675 151.199 138.176 151.908 139.612 151.526Z" fill="#180F33"/>
<path d="M19.8313 151.526C18.3418 151.13 17.3855 149.679 17.603 148.154L19.9833 131.549L30.4486 134.34L23.3853 149.846C22.7687 151.199 21.2672 151.908 19.8313 151.526Z" fill="#180F33"/>
<path d="M24.2491 134.504H136.979C147.501 134.504 155.336 125.385 153.119 115.727L147.647 91.8945H11.9606L7.92701 116.65C6.39876 126.04 14.1353 134.504 24.2491 134.504Z" fill="#836ABD"/>
<path d="M114.702 120.603H122.724C127.583 120.603 131.229 116.162 130.282 111.395L129.936 109.661C129.218 106.057 126.055 103.459 122.379 103.459H114.356C109.497 103.459 105.851 107.901 106.798 112.667L107.144 114.401C107.862 118.006 111.025 120.603 114.702 120.603Z" fill="#7660AB"/>
<path d="M36.4574 120.603H28.4348C23.576 120.603 19.9297 116.162 20.877 111.395L21.2226 109.661C21.9405 106.057 25.1043 103.459 28.7804 103.459H36.8029C41.6617 103.459 45.3081 107.901 44.3608 112.667L44.0152 114.401C43.2972 118.006 40.1335 120.603 36.4574 120.603Z" fill="#7660AB"/>
<path d="M79.6086 120.603H71.2852C67.0698 120.603 63.635 117.213 63.5814 112.998L63.5576 111.264C63.501 106.968 66.9686 103.459 71.2614 103.459H79.5848C83.8001 103.459 87.2349 106.849 87.2886 111.064L87.3124 112.798C87.369 117.094 83.9014 120.603 79.6086 120.603Z" fill="#7660AB"/>
<path d="M155.005 120.815C160.004 120.234 163.15 116.275 161.997 112.018L158.038 97.4026C156.885 93.1426 151.85 90.1338 146.851 90.7117C141.852 91.2927 138.707 95.2518 139.859 99.5088L143.819 114.124C144.972 118.384 150.006 121.393 155.005 120.815Z" fill="#9377D4"/>
<path d="M7.22995 120.815C2.23113 120.234 -0.914728 116.275 0.238159 112.018L4.1973 97.4026C5.35018 93.1426 10.3848 90.1338 15.3836 90.7117C20.3824 91.2927 23.5283 95.2518 22.3754 99.5088L18.4162 114.124C17.2633 118.384 12.2288 121.393 7.22995 120.815Z" fill="#9377D4"/>
<path fill-rule="evenodd" clip-rule="evenodd" d="M58.806 105.262L58.675 107.895C58.6035 109.361 57.4923 110.568 56.0356 110.761L46.5384 112.021C46.1005 112.078 45.6685 111.884 45.4212 111.521L45.2991 111.342C44.9446 110.821 45.0727 110.109 45.5851 109.742L49.5204 107.955L54.4805 103.591C55.976 103.254 57.3493 103.817 58.8031 105.262H58.806Z" fill="#ED6C6C"/>
<path fill-rule="evenodd" clip-rule="evenodd" d="M99.6576 91.6968L94.7183 94.5716L74.4132 84.0288C72.2326 82.8968 69.5604 83.433 67.9875 85.3157L51.9573 104.486L60.0692 104.7C65.1455 101.691 70.5911 98.8793 72.3309 94.0711L82.9809 103.759L106.947 101.575L106.152 92.382L99.6546 91.6998L99.6576 91.6968Z" fill="#BAA4ED"/>
<path fill-rule="evenodd" clip-rule="evenodd" d="M37.2855 114.431L35.1406 115.965C33.946 116.82 32.3106 116.698 31.256 115.679L24.3655 109.024C24.0497 108.717 23.9305 108.259 24.0646 107.839L24.1301 107.633C24.3208 107.031 24.9553 106.689 25.5601 106.864L29.406 108.837L35.9062 110.01C37.0979 110.972 37.509 112.399 37.2826 114.434L37.2855 114.431Z" fill="#ED6C6C"/>
<path fill-rule="evenodd" clip-rule="evenodd" d="M116.275 92.3379C116.275 92.3379 121.604 98.433 121.178 105.997C120.913 110.698 117.01 114.368 112.304 114.368H77.2701C77.2701 114.368 46.8422 118.401 35.9092 115.461V110.01L74.1242 104.439L106.131 96.7469V92.3409H116.275V92.3379Z" fill="#C8B0FF"/>
<path fill-rule="evenodd" clip-rule="evenodd" d="M124.798 90.4015C123.633 93.5354 127.178 101.221 125.259 108.008L128.244 108.657C128.244 108.657 132.159 94.9743 128.834 87.0918C127.613 88.6588 126.296 89.8683 124.798 90.3985V90.4015Z" fill="#ED6C6C"/>
<path fill-rule="evenodd" clip-rule="evenodd" d="M100.754 65.9353L108.97 62.6465L113.021 64.7199L117.928 67.0286C120.362 68.1726 121.559 70.952 120.722 73.5051L117.138 84.4351L116.546 94.0753C109.73 95.2073 98.0488 99.1605 94.7212 94.5698L99.4728 79.7432L100.757 65.9324L100.754 65.9353Z" fill="white"/>
<path fill-rule="evenodd" clip-rule="evenodd" d="M103.048 65.8904C103.048 65.8904 100.894 64.5826 96.3865 67.7105C91.8792 70.8385 84.1367 74.3359 84.1367 74.3359C84.1367 74.3359 75.0119 76.9962 82.522 82.7279C86.931 86.0942 99.5502 77.315 99.5502 77.315L103.283 73.8593L103.045 65.8904H103.048Z" fill="white"/>
<path fill-rule="evenodd" clip-rule="evenodd" d="M79.3881 79.7451L75.0625 65.5232L78.0981 64.0039L84.6788 75.3123C86.4037 78.0352 81.101 81.6964 79.3881 79.7451Z" fill="#ED6C6C"/>
<path fill-rule="evenodd" clip-rule="evenodd" d="M125.822 106.593L121.524 111.654C121.524 111.654 119.367 116.65 122.349 117.019C125.331 117.389 125.274 115.143 125.489 114.41C125.703 113.677 127.845 112.965 128.346 108.312L125.822 106.59V106.593Z" fill="#ED6C6C"/>
<path fill-rule="evenodd" clip-rule="evenodd" d="M112.601 63.3223C112.601 63.3223 124.142 63.6678 128.346 78.6137C129.606 83.0911 134.05 91.6529 131.298 95.4214C128.545 99.1928 124.279 98.3647 122.784 92.5913C121.291 86.8179 116.581 81.8668 116.581 81.8668L112.601 63.3223Z" fill="white"/>
<path fill-rule="evenodd" clip-rule="evenodd" d="M118.786 84.1482L116.766 79.8613C116.704 81.8722 115.682 83.5941 113.462 84.9555C112.405 88.1907 112.336 94.0892 110.162 94.831L116.751 94.2799L118.399 86.591L118.783 84.1511L118.786 84.1482Z" fill="#D1D1D1"/>
<path d="M37.3449 80.8715C39.0774 80.8715 40.4819 79.4671 40.4819 77.7346C40.4819 76.0021 39.0774 74.5977 37.3449 74.5977C35.6125 74.5977 34.208 76.0021 34.208 77.7346C34.208 79.4671 35.6125 80.8715 37.3449 80.8715Z" fill="#7660AB"/>
<path d="M69.9773 80.8715C71.7097 80.8715 73.1142 79.4671 73.1142 77.7346C73.1142 76.0021 71.7097 74.5977 69.9773 74.5977C68.2448 74.5977 66.8403 76.0021 66.8403 77.7346C66.8403 79.4671 68.2448 80.8715 69.9773 80.8715Z" fill="#7660AB"/>
<path fill-rule="evenodd" clip-rule="evenodd" d="M85.927 73.7489L81.9619 73.9366C80.3533 74.0141 78.5986 72.891 78.0654 71.4402L73.9513 60.2599C73.4181 58.812 74.2999 57.5638 75.9085 57.4864L79.8736 57.2987C81.4823 57.2212 83.237 58.3443 83.7702 59.7951L87.8843 70.9754C88.4175 72.4233 87.5357 73.6715 85.927 73.7489Z" fill="#180F33"/>
<path fill-rule="evenodd" clip-rule="evenodd" d="M74.1719 64.3772C74.1719 64.3772 79.0932 59.7835 81.1577 62.6642C83.2222 65.5479 78.7119 68.8755 76.7994 68.6372C74.8868 68.3989 74.1719 64.3772 74.1719 64.3772Z" fill="#ED6C6C"/>
<path fill-rule="evenodd" clip-rule="evenodd" d="M101.719 51.3535C101.719 51.3535 96.6367 56.4804 101.633 62.2121C106.628 67.9438 106.545 62.5904 106.545 62.5904C106.545 62.5904 105.803 52.8937 101.719 51.3535Z" fill="#180F33"/>
<path fill-rule="evenodd" clip-rule="evenodd" d="M104.802 59.4647C104.802 59.4647 105.997 63.7307 106.989 67.2638C107.254 68.2052 108.005 68.9321 108.952 69.1614C109.902 69.3938 110.903 69.0959 111.571 68.3809C111.788 68.1486 112.003 67.9192 112.205 67.7047C113.12 66.7276 113.391 65.3066 112.896 64.0613C111.63 60.8678 109.324 55.0527 109.324 55.0527L104.805 59.4647H104.802Z" fill="#ED6C6C"/>
<path fill-rule="evenodd" clip-rule="evenodd" d="M107.191 60.8528C107.191 60.8528 109.78 61.0256 110.975 60.0723C110.975 60.0723 109.622 63.0483 107.403 63.3224L107.191 60.8528Z" fill="#ED6C6C"/>
<path fill-rule="evenodd" clip-rule="evenodd" d="M110.561 53.3911C110.46 52.0982 109.327 51.13 108.032 51.2343C106.649 51.3445 104.91 51.4815 103.527 51.5888C102.234 51.69 101.469 52.8221 101.37 54.118C101.254 55.6462 101.734 58.7593 102.357 60.9727C102.708 62.2209 103.804 63.3142 105.097 63.21C106.48 63.0997 110.513 61.4583 110.719 58.9559C110.874 57.0523 110.71 55.2917 110.558 53.3881L110.561 53.3911Z" fill="#ED6C6C"/>
<path fill-rule="evenodd" clip-rule="evenodd" d="M114.148 56.3535C114.148 56.3535 113.653 51.3636 111.317 50.0052C108.178 48.1791 104.424 47.6726 101.439 51.7033C101.439 51.7033 102.663 59.3206 114.151 56.3535H114.148Z" fill="#180F33"/>
<path fill-rule="evenodd" clip-rule="evenodd" d="M105.815 63.0752L106.387 65.1188L108.449 62.25L105.815 63.0752Z" fill="#A12A2A"/>
<path fill-rule="evenodd" clip-rule="evenodd" d="M103.286 60.4266L105.529 60.2031C105.529 60.2031 105.639 61.7403 104.546 61.7195C103.453 61.6986 103.286 60.4266 103.286 60.4266Z" fill="white"/>
<path fill-rule="evenodd" clip-rule="evenodd" d="M108.97 56.9136C108.97 56.9136 112.122 60.1428 110.611 63.4019C109.104 66.658 104.507 69.1931 108.449 74.5971C112.39 80.0011 114.919 77.6029 114.472 84.6871C114.472 84.6871 119.257 84.4696 117.949 76.5126C116.641 68.5556 114.356 67.9419 117.514 64.6531C120.672 61.3642 112.724 51.9922 112.724 51.9922L108.967 56.9136H108.97Z" fill="#180F33"/>
<path fill-rule="evenodd" clip-rule="evenodd" d="M112.405 58.4165C112.122 59.4443 111.201 60.0877 110.349 59.8524C109.497 59.6171 109.039 58.5923 109.325 57.5645C109.608 56.5367 110.528 55.8933 111.38 56.1286C112.232 56.3639 112.691 57.3887 112.405 58.4165Z" fill="#ED6C6C"/>
<path fill-rule="evenodd" clip-rule="evenodd" d="M121.178 105.997C121.41 101.877 119.936 98.2006 118.545 95.7012C120.928 104.114 116.149 109.351 112.578 111.675C109.003 114.001 77.6693 109.56 71.5712 111.675C66.3311 113.492 42.5107 113.31 35.9092 113.224V115.458C46.8452 118.401 77.2701 114.365 77.2701 114.365H112.304C117.01 114.365 120.913 110.695 121.178 105.994V105.997Z" fill="#9D7FE3"/>
</svg>
