<svg width="19" height="19" viewBox="0 0 19 19" fill="none" xmlns="http://www.w3.org/2000/svg">
<path d="M11.6891 12.6611C11.3043 12.6611 10.9676 13.0304 10.9676 13.4525V17.0924H1.82896V1.58269H10.9679V5.22259C10.9679 5.64464 11.3046 6.01394 11.6894 6.01394C12.0741 6.01394 12.4108 5.64464 12.4108 5.22259V0.791343C12.4108 0.369293 12.0741 0 11.6893 0H1.10766C0.722969 0 0.38623 0.369293 0.38623 0.791343V17.8834C0.38623 18.3055 0.722939 18.6748 1.10775 18.6748H11.6894C12.0742 18.6748 12.4109 18.3055 12.4109 17.8834V13.4522C12.4108 12.9774 12.0741 12.6608 11.6893 12.6608L11.6891 12.6611Z" fill="#9CABAF"/>
<path d="M19.0002 9.7608V9.60253V9.49701V9.3915C19.0002 9.33874 18.9521 9.33874 18.9521 9.28598L18.904 9.23322V9.18047L15.0078 4.8546C14.7192 4.53805 14.2863 4.53805 13.9978 4.8546C13.7092 5.17114 13.7092 5.64594 13.9978 5.96237L16.5951 8.91652L6.39803 8.91665C6.01322 8.91665 5.67651 9.28594 5.67651 9.70799C5.67651 10.13 6.01322 10.4993 6.39803 10.4993H16.547L13.9497 13.4535C13.6611 13.77 13.6611 14.2448 13.9497 14.5613C14.094 14.7195 14.2864 14.7723 14.4308 14.7723C14.6232 14.7723 14.8156 14.6668 14.9599 14.5085L18.7596 10.2353C18.7596 10.2353 18.7596 10.1826 18.8077 10.1826V10.1298C18.8558 10.077 18.8558 10.0243 18.9039 9.97153V9.91878C18.9039 9.86602 18.952 9.81326 18.952 9.76051L19.0002 9.7608Z" fill="#9CABAF"/>
</svg>
