<svg width="24" height="24" xmlns="http://www.w3.org/2000/svg" fill="none">
  <circle stroke-width="1.04575" stroke="currentColor" r="3.24183" cy="12" cx="12"/>
  <path stroke-width="1.04575" stroke="currentColor" d="m10.3561,1.90065c0.37924,-1.68723 2.77131,-1.68723 3.15055,0c0.44453,1.9774 2.7024,2.91731 4.408,1.83494c1.45531,-0.92356 3.14681,0.77639 2.22791,2.23894c-1.07706,1.71409 -0.14181,3.98318 1.82582,4.42992c1.67889,0.38113 1.67889,2.78509 0,3.16622c-1.96763,0.44674 -2.90288,2.71584 -1.82582,4.42992c0.9189,1.46255 -0.7726,3.16246 -2.22791,2.23899c-1.7056,-1.08242 -3.96347,-0.14252 -4.408,1.8349c-0.37924,1.68724 -2.77131,1.68724 -3.15055,0c-0.44453,-1.97741 -2.7024,-2.91732 -4.408,-1.8349c-1.45531,0.92347 -3.14684,-0.77644 -2.22786,-2.23899c1.07702,-1.71409 0.14176,-3.98318 -1.82584,-4.42992c-1.67889,-0.38113 -1.67889,-2.78509 -0.00001,-3.16622c1.96762,-0.44674 2.90287,-2.71584 1.82585,-4.42992c-0.91899,-1.46255 0.77255,-3.1625 2.22786,-2.23894c1.7056,1.08237 3.96347,0.14247 4.408,-1.83494z"/>
</svg>