<svg width="17" height="14" viewBox="0 0 17 14" fill="none" xmlns="http://www.w3.org/2000/svg">
<path d="M0.875 14C0.391751 14 0 13.6082 0 13.125V13.125C0 12.6418 0.391751 12.25 0.875 12.25H16.125C16.6082 12.25 17 12.6418 17 13.125V13.125C17 13.6082 16.6082 14 16.125 14H0.875ZM0.875 7.875C0.391751 7.875 0 7.48325 0 7V7C0 6.51675 0.391751 6.125 0.875 6.125H16.125C16.6082 6.125 17 6.51675 17 7V7C17 7.48325 16.6082 7.875 16.125 7.875H0.875ZM0.875 1.75C0.391751 1.75 0 1.35825 0 0.875V0.875C0 0.391751 0.391751 0 0.875 0H16.125C16.6082 0 17 0.391751 17 0.875V0.875C17 1.35825 16.6082 1.75 16.125 1.75H0.875Z" fill="#9CABAF"/>
</svg>
