<svg width="25" height="22" viewBox="0 0 25 22" fill="none" xmlns="http://www.w3.org/2000/svg">
<path d="M23.1666 7.51103H22.6333V1.04271C22.6333 0.661546 22.4669 0.337207 22.1769 0.152952C21.8865 -0.0314963 21.5134 -0.0500834 21.1536 0.102416L11.5698 4.1556L1.79128 4.86702C1.07924 4.91882 0.5 5.52466 0.5 6.21737V12.9444C0.5 13.6371 1.07924 14.2429 1.79109 14.2948L5.44528 14.5608L7.23975 20.872C7.41962 21.5044 8.09037 22 8.7667 22H9.83327C10.5684 22 11.1666 21.4196 11.1666 20.7063V14.9768L11.5699 15.006L21.1537 19.0594C21.3153 19.1276 21.4796 19.1619 21.6377 19.1619C21.8321 19.1619 22.017 19.1106 22.1769 19.009C22.4669 18.8244 22.6334 18.4999 22.6334 18.1189V11.6506H23.1667C23.9018 11.6506 24.5 11.0702 24.5 10.3569V8.80441C24.5 8.09114 23.9018 7.51075 23.1667 7.51075L23.1666 7.51103ZM1.56666 12.9444V6.21736C1.56666 6.06233 1.71175 5.91055 1.87097 5.89918L11.1667 5.22274V13.9388L1.87145 13.2625C1.71185 13.2512 1.56677 13.0994 1.56677 12.9443L1.56666 12.9444ZM10.1 20.7064C10.1 20.8466 9.97777 20.9652 9.83324 20.9652H8.76667C8.56782 20.9652 8.32099 20.7825 8.26796 20.5968L6.57524 14.6428L10.1 14.8992L10.1 20.7064ZM21.5666 18.105L12.2333 14.1577V5.00414L21.5666 1.0569V18.105ZM23.4334 10.3569C23.4334 10.4971 23.3112 10.6157 23.1667 10.6157H22.6334V8.54575H23.1667C23.3112 8.54575 23.4334 8.66433 23.4334 8.80456V10.3569Z" fill="#9CABAF"/>
</svg>
