<svg width="20" height="25" viewBox="0 0 20 25" fill="none" xmlns="http://www.w3.org/2000/svg">
<rect x="1" y="0.5" width="14" height="21" rx="1.5" stroke="#9CABAF"/>
<line x1="4.5" y1="2.5" x2="11.5" y2="2.5" stroke="#9CABAF"/>
<path d="M7.48132 9.84487C7.53599 9.56441 7.58575 9.33287 7.62413 9.16227L13 8.50374L18.3759 9.16227C18.4143 9.33287 18.464 9.56441 18.5187 9.84487C18.6427 10.4809 18.7913 11.3656 18.8903 12.3599C19.0909 14.374 19.0764 16.7399 18.3258 18.4212C17.7113 19.7977 16.3296 21.3341 15.0525 22.5558C14.4218 23.159 13.8309 23.6723 13.3978 24.0346C13.243 24.164 13.1086 24.274 13 24.3618C12.8914 24.274 12.757 24.164 12.6022 24.0346C12.1691 23.6723 11.5782 23.159 10.9475 22.5558C9.6704 21.3341 8.28873 19.7977 7.67419 18.4212C6.92361 16.7399 6.90913 14.374 7.10967 12.3599C7.20867 11.3656 7.35734 10.4809 7.48132 9.84487Z" fill="white" stroke="#9CABAF"/>
<rect x="10.6667" y="15.5002" width="4.66667" height="3.11111" rx="0.388889" stroke="#9CABAF" stroke-width="0.777778"/>
<path d="M14.9446 13.9753C14.9446 12.8844 14.074 12 13.0001 12C11.9262 12 11.0557 12.8844 11.0557 13.9753V15.8889" stroke="#9CABAF" stroke-width="0.777778"/>
<line x1="12.5" y1="17" x2="13.5" y2="17" stroke="#9CABAF"/>
</svg>
